<svg xmlns="http://www.w3.org/2000/svg" xmlns:xlink="http://www.w3.org/1999/xlink" width="500" zoomAndPan="magnify" viewBox="0 0 375 374.999991" height="500" preserveAspectRatio="xMidYMid meet" version="1.0"><defs><g/><clipPath id="id1"><path d="M 31 9 L 246.101562 9 L 246.101562 251 L 31 251 Z M 31 9 " clip-rule="nonzero"/></clipPath></defs><rect x="-37.5" width="450" fill="#ffffff" y="-37.499999" height="449.999989" fill-opacity="1"/><rect x="-37.5" width="450" fill="#ffffff" y="-37.499999" height="449.999989" fill-opacity="1"/><rect x="-37.5" width="450" fill="#ffffff" y="-37.499999" height="449.999989" fill-opacity="1"/><rect x="-37.5" width="450" fill="#ffffff" y="-37.499999" height="449.999989" fill-opacity="1"/><g clip-path="url(#id1)"><path fill="#1e3456" d="M 89.796875 204.113281 C 42.945312 157.351562 38.441406 86.027344 79.726562 44.8125 C 113.839844 10.765625 168.535156 7.921875 212.9375 34.328125 C 164.070312 -0.015625 100.316406 0.925781 61.5 39.671875 C 17.367188 83.726562 22.183594 159.964844 72.261719 209.949219 C 122.335938 259.9375 198.710938 264.742188 242.84375 220.691406 C 243.953125 219.582031 245.027344 218.449219 246.074219 217.300781 C 204.363281 255.105469 135.417969 249.652344 89.796875 204.113281 " fill-opacity="1" fill-rule="nonzero"/></g><path fill="#e53a46" d="M 191.917969 135.625 L 191.917969 109.628906 L 175.035156 109.628906 L 175.035156 118.773438 L 144.691406 88.480469 L 101.140625 88.480469 L 61.820312 127.632812 C 63.78125 145.601562 70 163.675781 80.363281 180.214844 L 80.863281 180.214844 L 144.691406 116.503906 L 208.515625 180.214844 L 236.589844 180.214844 L 191.917969 135.625 " fill-opacity="1" fill-rule="nonzero"/><path fill="#1e3456" d="M 130.371094 163.070312 L 141.554688 163.070312 L 141.554688 151.90625 L 130.371094 151.90625 L 130.371094 163.070312 " fill-opacity="1" fill-rule="nonzero"/><path fill="#1e3456" d="M 130.371094 180.214844 L 141.554688 180.214844 L 141.554688 169.050781 L 130.371094 169.050781 L 130.371094 180.214844 " fill-opacity="1" fill-rule="nonzero"/><path fill="#1e3456" d="M 148.347656 180.214844 L 159.53125 180.214844 L 159.53125 169.050781 L 148.347656 169.050781 L 148.347656 180.214844 " fill-opacity="1" fill-rule="nonzero"/><path fill="#1e3456" d="M 148.347656 163.070312 L 159.53125 163.070312 L 159.53125 151.90625 L 148.347656 151.90625 L 148.347656 163.070312 " fill-opacity="1" fill-rule="nonzero"/><g fill="#e43b45" fill-opacity="1"><g transform="translate(2.02231, 311.86473)"><g/></g></g><g fill="#e43b45" fill-opacity="1"><g transform="translate(27.041843, 311.86473)"><g><path d="M 38.046875 0 L 24.671875 -19.890625 L 17.9375 -12.4375 L 17.9375 0 L 5.0625 0 L 5.0625 -50.640625 L 17.9375 -50.640625 L 17.9375 -28.71875 L 37.328125 -50.640625 L 52.234375 -50.640625 L 33.421875 -29.65625 L 53.46875 0 Z M 38.046875 0 "/></g></g></g><g fill="#e43b45" fill-opacity="1"><g transform="translate(89.327339, 311.86473)"><g><path d="M 38.703125 -9.328125 L 16.5625 -9.328125 L 12.875 0 L -0.359375 0 L 21.484375 -50.640625 L 34.71875 -50.640625 L 56.0625 0 L 42.328125 0 Z M 34.9375 -19.09375 L 27.703125 -37.828125 L 20.328125 -19.09375 Z M 34.9375 -19.09375 "/></g></g></g><g fill="#e43b45" fill-opacity="1"><g transform="translate(153.276645, 311.86473)"><g><path d="M 46.296875 -42.390625 L 19.25 -10.203125 L 46.734375 -10.203125 L 46.734375 0 L 2.03125 0 L 2.03125 -8.25 L 29.15625 -40.4375 L 2.96875 -40.4375 L 2.96875 -50.640625 L 46.296875 -50.640625 Z M 46.296875 -42.390625 "/></g></g></g><g fill="#e43b45" fill-opacity="1"><g transform="translate(210.35366, 311.86473)"><g><path d="M 38.703125 -9.328125 L 16.5625 -9.328125 L 12.875 0 L -0.359375 0 L 21.484375 -50.640625 L 34.71875 -50.640625 L 56.0625 0 L 42.328125 0 Z M 34.9375 -19.09375 L 27.703125 -37.828125 L 20.328125 -19.09375 Z M 34.9375 -19.09375 "/></g></g></g><g fill="#1e3456" fill-opacity="1"><g transform="translate(274.295729, 311.86473)"><g><path d="M 42.75 2.171875 L 35.59375 -4.78125 C 31.300781 -1.207031 26.503906 0.578125 21.203125 0.578125 C 16.234375 0.578125 12.117188 -0.804688 8.859375 -3.578125 C 5.609375 -6.347656 3.984375 -9.878906 3.984375 -14.171875 C 3.984375 -17.265625 4.875 -19.859375 6.65625 -21.953125 C 8.4375 -24.054688 10.894531 -25.972656 14.03125 -27.703125 C 11.1875 -31.753906 9.765625 -35.539062 9.765625 -39.0625 C 9.765625 -42.78125 11.078125 -45.734375 13.703125 -47.921875 C 16.335938 -50.117188 19.847656 -51.21875 24.234375 -51.21875 C 28.472656 -51.21875 31.941406 -50.15625 34.640625 -48.03125 C 37.347656 -45.914062 38.703125 -43.191406 38.703125 -39.859375 C 38.703125 -36.679688 37.648438 -34.050781 35.546875 -31.96875 C 33.453125 -29.894531 30.523438 -27.894531 26.765625 -25.96875 C 29.316406 -23.175781 31.992188 -20.40625 34.796875 -17.65625 C 36.191406 -20.0625 37.328125 -22.757812 38.203125 -25.75 L 46.15625 -20.109375 C 44.945312 -16.828125 43.40625 -13.835938 41.53125 -11.140625 L 49.046875 -3.984375 Z M 19.53125 -39.0625 C 19.53125 -36.9375 20.398438 -34.550781 22.140625 -31.90625 C 26.671875 -34.363281 28.9375 -36.992188 28.9375 -39.796875 C 28.9375 -41.097656 28.515625 -42.15625 27.671875 -42.96875 C 26.828125 -43.789062 25.726562 -44.203125 24.375 -44.203125 C 22.882812 -44.203125 21.703125 -43.71875 20.828125 -42.75 C 19.960938 -41.789062 19.53125 -40.5625 19.53125 -39.0625 Z M 21.703125 -8.171875 C 24.304688 -8.171875 26.816406 -9.113281 29.234375 -11 C 24.117188 -16.113281 20.664062 -19.679688 18.875 -21.703125 C 15.738281 -19.628906 14.171875 -17.410156 14.171875 -15.046875 C 14.171875 -13.023438 14.882812 -11.375 16.3125 -10.09375 C 17.738281 -8.8125 19.535156 -8.171875 21.703125 -8.171875 Z M 21.703125 -8.171875 "/></g></g></g><g fill="#1e3456" fill-opacity="1"><g transform="translate(28.315636, 350.222518)"><g><path d="M 12.796875 -22.71875 C 14.472656 -22.71875 16.117188 -22.375 17.734375 -21.6875 C 19.359375 -21 20.738281 -20.078125 21.875 -18.921875 L 18.5625 -14.984375 C 17.832031 -15.890625 16.957031 -16.601562 15.9375 -17.125 C 14.914062 -17.65625 13.90625 -17.921875 12.90625 -17.921875 C 11.125 -17.921875 9.628906 -17.289062 8.421875 -16.03125 C 7.222656 -14.78125 6.625 -13.234375 6.625 -11.390625 C 6.625 -9.503906 7.222656 -7.925781 8.421875 -6.65625 C 9.628906 -5.394531 11.125 -4.765625 12.90625 -4.765625 C 13.84375 -4.765625 14.820312 -5 15.84375 -5.46875 C 16.863281 -5.9375 17.769531 -6.582031 18.5625 -7.40625 L 21.90625 -3.859375 C 20.6875 -2.617188 19.242188 -1.625 17.578125 -0.875 C 15.921875 -0.125 14.265625 0.25 12.609375 0.25 C 9.222656 0.25 6.398438 -0.851562 4.140625 -3.0625 C 1.890625 -5.269531 0.765625 -8.023438 0.765625 -11.328125 C 0.765625 -14.566406 1.910156 -17.273438 4.203125 -19.453125 C 6.503906 -21.628906 9.367188 -22.71875 12.796875 -22.71875 Z M 12.796875 -22.71875 "/></g></g></g><g fill="#1e3456" fill-opacity="1"><g transform="translate(54.874633, 350.222518)"><g><path d="M 12.9375 -22.71875 C 16.425781 -22.71875 19.328125 -21.628906 21.640625 -19.453125 C 23.960938 -17.273438 25.125 -14.554688 25.125 -11.296875 C 25.125 -8.015625 23.957031 -5.269531 21.625 -3.0625 C 19.300781 -0.851562 16.398438 0.25 12.921875 0.25 C 9.453125 0.25 6.554688 -0.847656 4.234375 -3.046875 C 1.921875 -5.242188 0.765625 -7.992188 0.765625 -11.296875 C 0.765625 -14.578125 1.921875 -17.300781 4.234375 -19.46875 C 6.554688 -21.632812 9.457031 -22.71875 12.9375 -22.71875 Z M 13 -17.921875 C 11.238281 -17.921875 9.734375 -17.28125 8.484375 -16 C 7.242188 -14.726562 6.625 -13.144531 6.625 -11.25 C 6.625 -9.363281 7.25 -7.769531 8.5 -6.46875 C 9.757812 -5.175781 11.257812 -4.53125 13 -4.53125 C 14.738281 -4.53125 16.210938 -5.175781 17.421875 -6.46875 C 18.628906 -7.769531 19.234375 -9.363281 19.234375 -11.25 C 19.234375 -13.144531 18.628906 -14.726562 17.421875 -16 C 16.210938 -17.28125 14.738281 -17.921875 13 -17.921875 Z M 13 -17.921875 "/></g></g></g><g fill="#1e3456" fill-opacity="1"><g transform="translate(85.066593, 350.222518)"><g><path d="M 23.03125 0 L 17.984375 0 L 7.625 -13.859375 L 7.625 0 L 2.25 0 L 2.25 -22.515625 L 7.296875 -22.515625 L 17.6875 -8.625 L 17.6875 -22.515625 L 23.03125 -22.515625 Z M 23.03125 0 "/></g></g></g><g fill="#1e3456" fill-opacity="1"><g transform="translate(114.647692, 350.222518)"><g><path d="M 10.90625 -22.78125 C 14.269531 -22.78125 17.226562 -21.941406 19.78125 -20.265625 L 17.625 -15.796875 C 16.445312 -16.484375 15.179688 -17.046875 13.828125 -17.484375 C 12.484375 -17.921875 11.347656 -18.140625 10.421875 -18.140625 C 8.773438 -18.140625 7.953125 -17.59375 7.953125 -16.5 C 7.953125 -15.789062 8.359375 -15.222656 9.171875 -14.796875 C 9.984375 -14.367188 10.972656 -14 12.140625 -13.6875 C 13.304688 -13.375 14.472656 -13 15.640625 -12.5625 C 16.816406 -12.125 17.8125 -11.410156 18.625 -10.421875 C 19.4375 -9.429688 19.84375 -8.1875 19.84375 -6.6875 C 19.84375 -4.519531 18.992188 -2.832031 17.296875 -1.625 C 15.609375 -0.414062 13.457031 0.1875 10.84375 0.1875 C 8.976562 0.1875 7.132812 -0.128906 5.3125 -0.765625 C 3.488281 -1.410156 1.898438 -2.289062 0.546875 -3.40625 L 2.765625 -7.8125 C 3.898438 -6.832031 5.238281 -6.023438 6.78125 -5.390625 C 8.332031 -4.753906 9.707031 -4.4375 10.90625 -4.4375 C 11.832031 -4.4375 12.550781 -4.601562 13.0625 -4.9375 C 13.570312 -5.269531 13.828125 -5.757812 13.828125 -6.40625 C 13.828125 -7.019531 13.53125 -7.535156 12.9375 -7.953125 C 12.351562 -8.378906 11.617188 -8.691406 10.734375 -8.890625 C 9.859375 -9.097656 8.90625 -9.375 7.875 -9.71875 C 6.851562 -10.0625 5.898438 -10.4375 5.015625 -10.84375 C 4.140625 -11.25 3.40625 -11.894531 2.8125 -12.78125 C 2.226562 -13.675781 1.9375 -14.742188 1.9375 -15.984375 C 1.9375 -18.046875 2.753906 -19.691406 4.390625 -20.921875 C 6.035156 -22.160156 8.207031 -22.78125 10.90625 -22.78125 Z M 10.90625 -22.78125 "/></g></g></g><g fill="#1e3456" fill-opacity="1"><g transform="translate(139.663465, 350.222518)"><g><path d="M 19.46875 -17.921875 L 12.671875 -17.921875 L 12.671875 0 L 6.953125 0 L 6.953125 -17.921875 L 0.21875 -17.921875 L 0.21875 -22.546875 L 19.46875 -22.546875 Z M 19.46875 -17.921875 "/></g></g></g><g fill="#1e3456" fill-opacity="1"><g transform="translate(163.6183, 350.222518)"><g><path d="M 15.828125 0 L 12.484375 -6.34375 L 7.984375 -6.34375 L 7.984375 0 L 2.25 0 L 2.25 -22.515625 L 12.328125 -22.515625 C 15.304688 -22.515625 17.609375 -21.832031 19.234375 -20.46875 C 20.867188 -19.113281 21.6875 -17.179688 21.6875 -14.671875 C 21.6875 -11.191406 20.320312 -8.78125 17.59375 -7.4375 L 22.328125 0 Z M 7.984375 -10.84375 L 12.328125 -10.84375 C 13.566406 -10.84375 14.53125 -11.148438 15.21875 -11.765625 C 15.90625 -12.390625 16.25 -13.296875 16.25 -14.484375 C 16.25 -15.640625 15.90625 -16.515625 15.21875 -17.109375 C 14.53125 -17.710938 13.566406 -18.015625 12.328125 -18.015625 L 7.984375 -18.015625 Z M 7.984375 -10.84375 "/></g></g></g><g fill="#1e3456" fill-opacity="1"><g transform="translate(191.206096, 350.222518)"><g><path d="M 22.515625 -22.515625 L 22.515625 -9.453125 C 22.515625 -6.472656 21.59375 -4.109375 19.75 -2.359375 C 17.90625 -0.617188 15.40625 0.25 12.25 0.25 C 9.082031 0.25 6.554688 -0.617188 4.671875 -2.359375 C 2.796875 -4.109375 1.859375 -6.472656 1.859375 -9.453125 L 1.859375 -22.515625 L 7.59375 -22.515625 L 7.59375 -9.453125 C 7.59375 -7.953125 8.023438 -6.753906 8.890625 -5.859375 C 9.765625 -4.972656 10.898438 -4.53125 12.296875 -4.53125 C 13.660156 -4.53125 14.753906 -4.96875 15.578125 -5.84375 C 16.410156 -6.726562 16.828125 -7.929688 16.828125 -9.453125 L 16.828125 -22.515625 Z M 22.515625 -22.515625 "/></g></g></g><g fill="#1e3456" fill-opacity="1"><g transform="translate(219.886985, 350.222518)"><g><path d="M 18.5625 -7.40625 L 21.90625 -3.859375 C 19.757812 -1.648438 17.1875 -0.320312 14.1875 0.125 L 13.421875 1.640625 C 14.078125 1.804688 14.601562 2.117188 15 2.578125 C 15.40625 3.046875 15.609375 3.601562 15.609375 4.25 C 15.609375 5.257812 15.226562 6.0625 14.46875 6.65625 C 13.71875 7.257812 12.753906 7.5625 11.578125 7.5625 C 10.523438 7.5625 9.507812 7.226562 8.53125 6.5625 L 9.5625 4.28125 C 10.03125 4.707031 10.550781 4.921875 11.125 4.921875 C 11.539062 4.921875 11.867188 4.804688 12.109375 4.578125 C 12.359375 4.359375 12.484375 4.078125 12.484375 3.734375 C 12.484375 3.390625 12.351562 3.109375 12.09375 2.890625 C 11.832031 2.679688 11.46875 2.578125 11 2.578125 C 10.738281 2.578125 10.351562 2.617188 9.84375 2.703125 L 11.0625 0.15625 C 8.0625 -0.1875 5.59375 -1.425781 3.65625 -3.5625 C 1.726562 -5.707031 0.765625 -8.296875 0.765625 -11.328125 C 0.765625 -14.566406 1.910156 -17.273438 4.203125 -19.453125 C 6.503906 -21.628906 9.367188 -22.71875 12.796875 -22.71875 C 14.472656 -22.71875 16.117188 -22.375 17.734375 -21.6875 C 19.359375 -21 20.738281 -20.078125 21.875 -18.921875 L 18.5625 -14.984375 C 17.832031 -15.890625 16.957031 -16.601562 15.9375 -17.125 C 14.914062 -17.65625 13.90625 -17.921875 12.90625 -17.921875 C 11.125 -17.921875 9.628906 -17.289062 8.421875 -16.03125 C 7.222656 -14.78125 6.625 -13.234375 6.625 -11.390625 C 6.625 -9.503906 7.222656 -7.925781 8.421875 -6.65625 C 9.628906 -5.394531 11.125 -4.765625 12.90625 -4.765625 C 13.84375 -4.765625 14.820312 -5 15.84375 -5.46875 C 16.863281 -5.9375 17.769531 -6.582031 18.5625 -7.40625 Z M 18.5625 -7.40625 "/></g></g></g><g fill="#1e3456" fill-opacity="1"><g transform="translate(246.445986, 350.222518)"><g><path d="M 10.359375 -30.171875 C 11.066406 -30.171875 11.804688 -29.921875 12.578125 -29.421875 C 13.347656 -28.921875 13.84375 -28.671875 14.0625 -28.671875 C 14.726562 -28.671875 15.0625 -29.117188 15.0625 -30.015625 L 18.4375 -30.015625 C 18.4375 -26.691406 17.320312 -25.03125 15.09375 -25.03125 C 14.34375 -25.03125 13.582031 -25.28125 12.8125 -25.78125 C 12.050781 -26.289062 11.566406 -26.546875 11.359375 -26.546875 C 10.710938 -26.546875 10.390625 -26.082031 10.390625 -25.15625 L 6.984375 -25.15625 C 6.984375 -28.5 8.109375 -30.171875 10.359375 -30.171875 Z M 12.9375 -22.71875 C 16.425781 -22.71875 19.328125 -21.628906 21.640625 -19.453125 C 23.960938 -17.273438 25.125 -14.554688 25.125 -11.296875 C 25.125 -8.015625 23.957031 -5.269531 21.625 -3.0625 C 19.300781 -0.851562 16.398438 0.25 12.921875 0.25 C 9.453125 0.25 6.554688 -0.847656 4.234375 -3.046875 C 1.921875 -5.242188 0.765625 -7.992188 0.765625 -11.296875 C 0.765625 -14.578125 1.921875 -17.300781 4.234375 -19.46875 C 6.554688 -21.632812 9.457031 -22.71875 12.9375 -22.71875 Z M 13 -17.921875 C 11.238281 -17.921875 9.734375 -17.28125 8.484375 -16 C 7.242188 -14.726562 6.625 -13.144531 6.625 -11.25 C 6.625 -9.363281 7.25 -7.769531 8.5 -6.46875 C 9.757812 -5.175781 11.257812 -4.53125 13 -4.53125 C 14.738281 -4.53125 16.210938 -5.175781 17.421875 -6.46875 C 18.628906 -7.769531 19.234375 -9.363281 19.234375 -11.25 C 19.234375 -13.144531 18.628906 -14.726562 17.421875 -16 C 16.210938 -17.28125 14.738281 -17.921875 13 -17.921875 Z M 13 -17.921875 "/></g></g></g><g fill="#1e3456" fill-opacity="1"><g transform="translate(276.637948, 350.222518)"><g><path d="M 19.875 -18.015625 L 7.984375 -18.015625 L 7.984375 -13.546875 L 18.71875 -13.546875 L 18.71875 -9.046875 L 7.984375 -9.046875 L 7.984375 -4.5 L 20.234375 -4.5 L 20.234375 0 L 2.25 0 L 2.25 -22.515625 L 19.875 -22.515625 Z M 19.875 -18.015625 "/></g></g></g><g fill="#1e3456" fill-opacity="1"><g transform="translate(302.618233, 350.222518)"><g><path d="M 10.90625 -22.78125 C 14.269531 -22.78125 17.226562 -21.941406 19.78125 -20.265625 L 17.625 -15.796875 C 16.445312 -16.484375 15.179688 -17.046875 13.828125 -17.484375 C 12.484375 -17.921875 11.347656 -18.140625 10.421875 -18.140625 C 8.773438 -18.140625 7.953125 -17.59375 7.953125 -16.5 C 7.953125 -15.789062 8.359375 -15.222656 9.171875 -14.796875 C 9.984375 -14.367188 10.972656 -14 12.140625 -13.6875 C 13.304688 -13.375 14.472656 -13 15.640625 -12.5625 C 16.816406 -12.125 17.8125 -11.410156 18.625 -10.421875 C 19.4375 -9.429688 19.84375 -8.1875 19.84375 -6.6875 C 19.84375 -4.519531 18.992188 -2.832031 17.296875 -1.625 C 15.609375 -0.414062 13.457031 0.1875 10.84375 0.1875 C 8.976562 0.1875 7.132812 -0.128906 5.3125 -0.765625 C 3.488281 -1.410156 1.898438 -2.289062 0.546875 -3.40625 L 2.765625 -7.8125 C 3.898438 -6.832031 5.238281 -6.023438 6.78125 -5.390625 C 8.332031 -4.753906 9.707031 -4.4375 10.90625 -4.4375 C 11.832031 -4.4375 12.550781 -4.601562 13.0625 -4.9375 C 13.570312 -5.269531 13.828125 -5.757812 13.828125 -6.40625 C 13.828125 -7.019531 13.53125 -7.535156 12.9375 -7.953125 C 12.351562 -8.378906 11.617188 -8.691406 10.734375 -8.890625 C 9.859375 -9.097656 8.90625 -9.375 7.875 -9.71875 C 6.851562 -10.0625 5.898438 -10.4375 5.015625 -10.84375 C 4.140625 -11.25 3.40625 -11.894531 2.8125 -12.78125 C 2.226562 -13.675781 1.9375 -14.742188 1.9375 -15.984375 C 1.9375 -18.046875 2.753906 -19.691406 4.390625 -20.921875 C 6.035156 -22.160156 8.207031 -22.78125 10.90625 -22.78125 Z M 10.90625 -22.78125 "/></g></g></g><g fill="#e43b45" fill-opacity="1"><g transform="translate(273.959444, 88.949464)"><g><path d="M 38.625 -56.65625 L 38.625 -18.34375 C 38.625 -12.363281 36.882812 -7.703125 33.40625 -4.359375 C 29.9375 -1.023438 25.160156 0.640625 19.078125 0.640625 C 11.367188 0.640625 4.875 -2.375 -0.40625 -8.40625 L 6.21875 -18.015625 C 10.257812 -13.816406 14.222656 -11.71875 18.109375 -11.71875 C 22.140625 -11.71875 24.15625 -14.035156 24.15625 -18.671875 L 24.15625 -45.015625 L 4.765625 -45.015625 L 4.765625 -56.65625 Z M 38.625 -56.65625 "/></g></g></g><g fill="#e43b45" fill-opacity="1"><g transform="translate(263.11343, 167.866171)"><g><path d="M 32.484375 -57.046875 C 41.265625 -57.046875 48.5625 -54.3125 54.375 -48.84375 C 60.195312 -43.382812 63.109375 -36.554688 63.109375 -28.359375 C 63.109375 -20.117188 60.1875 -13.222656 54.34375 -7.671875 C 48.5 -2.128906 41.210938 0.640625 32.484375 0.640625 C 23.753906 0.640625 16.476562 -2.117188 10.65625 -7.640625 C 4.84375 -13.160156 1.9375 -20.066406 1.9375 -28.359375 C 1.9375 -36.609375 4.84375 -43.453125 10.65625 -48.890625 C 16.476562 -54.328125 23.753906 -57.046875 32.484375 -57.046875 Z M 32.640625 -45.015625 C 28.222656 -45.015625 24.453125 -43.410156 21.328125 -40.203125 C 18.203125 -36.992188 16.640625 -33.019531 16.640625 -28.28125 C 16.640625 -23.539062 18.21875 -19.539062 21.375 -16.28125 C 24.53125 -13.019531 28.285156 -11.390625 32.640625 -11.390625 C 37.003906 -11.390625 40.707031 -13.019531 43.75 -16.28125 C 46.800781 -19.539062 48.328125 -23.539062 48.328125 -28.28125 C 48.328125 -33.019531 46.800781 -36.992188 43.75 -40.203125 C 40.707031 -43.410156 37.003906 -45.015625 32.640625 -45.015625 Z M 32.640625 -45.015625 "/></g></g></g><g fill="#e43b45" fill-opacity="1"><g transform="translate(258.860584, 246.782877)"><g><path d="M 67.796875 0 L 55.109375 0 L 55.03125 -36.765625 L 41.453125 -5.65625 L 32.078125 -5.65625 L 18.5 -36.765625 L 18.5 0 L 5.65625 0 L 5.65625 -56.65625 L 21.421875 -56.65625 L 36.765625 -22.953125 L 52.125 -56.65625 L 67.796875 -56.65625 Z M 67.796875 0 "/></g></g></g></svg>