<svg xmlns="http://www.w3.org/2000/svg" xmlns:xlink="http://www.w3.org/1999/xlink" width="500" zoomAndPan="magnify" viewBox="0 0 375 374.999991" height="500" preserveAspectRatio="xMidYMid meet" version="1.0"><defs><filter x="0%" y="0%" width="100%" height="100%" id="id1"><feColorMatrix values="0 0 0 0 1 0 0 0 0 1 0 0 0 0 1 0 0 0 1 0" color-interpolation-filters="sRGB"/></filter><g/><mask id="id2"><g filter="url(#id1)"><rect x="-37.5" width="450" fill="#000000" y="-37.499999" height="449.999989" fill-opacity="0.6471"/></g></mask><clipPath id="id3"><path d="M 0.398438 0.359375 L 215.367188 0.359375 L 215.367188 242 L 0.398438 242 Z M 0.398438 0.359375 " clip-rule="nonzero"/></clipPath><clipPath id="id4"><rect x="0" width="216" y="0" height="243"/></clipPath><clipPath id="id5"><path d="M 26 10 L 240.851562 10 L 240.851562 252 L 26 252 Z M 26 10 " clip-rule="nonzero"/></clipPath><clipPath id="id6"><path d="M 31 9 L 246.101562 9 L 246.101562 251 L 31 251 Z M 31 9 " clip-rule="nonzero"/></clipPath></defs><rect x="-37.5" width="450" fill="#ffffff" y="-37.499999" height="449.999989" fill-opacity="1"/><rect x="-37.5" width="450" fill="#ffffff" y="-37.499999" height="449.999989" fill-opacity="1"/><rect x="-37.5" width="450" fill="#ffffff" y="-37.499999" height="449.999989" fill-opacity="1"/><rect x="-37.5" width="450" fill="#ffffff" y="-37.499999" height="449.999989" fill-opacity="1"/><g mask="url(#id2)"><g transform="matrix(1, 0, 0, 1, 20, 9)"><g clip-path="url(#id4)"><g clip-path="url(#id3)"><path fill="#d9d9d9" d="M 59.0625 195.113281 C 12.214844 148.351562 7.707031 77.027344 48.996094 35.8125 C 83.105469 1.765625 137.800781 -1.078125 182.207031 25.328125 C 133.335938 -9.015625 69.582031 -8.074219 30.765625 30.671875 C -13.367188 74.726562 -8.550781 150.964844 41.527344 200.949219 C 91.605469 250.9375 167.980469 255.742188 212.113281 211.691406 C 213.222656 210.582031 214.292969 209.449219 215.339844 208.300781 C 173.628906 246.105469 104.683594 240.652344 59.0625 195.113281 " fill-opacity="1" fill-rule="nonzero"/></g><path fill="#d9d9d9" d="M 161.1875 126.625 L 161.1875 100.628906 L 144.300781 100.628906 L 144.300781 109.773438 L 113.957031 79.480469 L 70.410156 79.480469 L 31.085938 118.632812 C 33.050781 136.601562 39.269531 154.675781 49.632812 171.214844 L 50.128906 171.214844 L 113.957031 107.503906 L 177.785156 171.214844 L 205.855469 171.214844 L 161.1875 126.625 " fill-opacity="1" fill-rule="nonzero"/><path fill="#d9d9d9" d="M 99.636719 154.070312 L 110.820312 154.070312 L 110.820312 142.90625 L 99.636719 142.90625 L 99.636719 154.070312 " fill-opacity="1" fill-rule="nonzero"/><path fill="#d9d9d9" d="M 99.636719 171.214844 L 110.820312 171.214844 L 110.820312 160.050781 L 99.636719 160.050781 L 99.636719 171.214844 " fill-opacity="1" fill-rule="nonzero"/><path fill="#d9d9d9" d="M 117.613281 171.214844 L 128.796875 171.214844 L 128.796875 160.050781 L 117.613281 160.050781 L 117.613281 171.214844 " fill-opacity="1" fill-rule="nonzero"/><path fill="#d9d9d9" d="M 117.613281 154.070312 L 128.796875 154.070312 L 128.796875 142.90625 L 117.613281 142.90625 L 117.613281 154.070312 " fill-opacity="1" fill-rule="nonzero"/></g></g></g><g clip-path="url(#id5)"><path fill="#d9d9d9" d="M 84.546875 204.863281 C 37.695312 158.101562 33.191406 86.777344 74.476562 45.5625 C 108.589844 11.515625 163.285156 8.671875 207.6875 35.078125 C 158.820312 0.734375 95.066406 1.675781 56.25 40.421875 C 12.117188 84.476562 16.933594 160.714844 67.011719 210.699219 C 117.085938 260.6875 193.460938 265.492188 237.59375 221.441406 C 238.703125 220.332031 239.777344 219.199219 240.824219 218.050781 C 199.113281 255.855469 130.167969 250.402344 84.546875 204.863281 " fill-opacity="1" fill-rule="nonzero"/></g><path fill="#d9d9d9" d="M 186.667969 136.375 L 186.667969 110.378906 L 169.785156 110.378906 L 169.785156 119.523438 L 139.441406 89.230469 L 95.890625 89.230469 L 56.570312 128.382812 C 58.53125 146.351562 64.75 164.425781 75.113281 180.964844 L 75.613281 180.964844 L 139.441406 117.253906 L 203.265625 180.964844 L 231.339844 180.964844 L 186.667969 136.375 " fill-opacity="1" fill-rule="nonzero"/><path fill="#d9d9d9" d="M 125.121094 163.820312 L 136.304688 163.820312 L 136.304688 152.65625 L 125.121094 152.65625 L 125.121094 163.820312 " fill-opacity="1" fill-rule="nonzero"/><path fill="#d9d9d9" d="M 125.121094 180.964844 L 136.304688 180.964844 L 136.304688 169.800781 L 125.121094 169.800781 L 125.121094 180.964844 " fill-opacity="1" fill-rule="nonzero"/><path fill="#d9d9d9" d="M 143.097656 180.964844 L 154.28125 180.964844 L 154.28125 169.800781 L 143.097656 169.800781 L 143.097656 180.964844 " fill-opacity="1" fill-rule="nonzero"/><path fill="#d9d9d9" d="M 143.097656 163.820312 L 154.28125 163.820312 L 154.28125 152.65625 L 143.097656 152.65625 L 143.097656 163.820312 " fill-opacity="1" fill-rule="nonzero"/><g fill="#ffffff" fill-opacity="0.302"><g transform="translate(16.884294, 306.15789)"><g><path d="M 38.046875 0 L 24.671875 -19.890625 L 17.9375 -12.4375 L 17.9375 0 L 5.0625 0 L 5.0625 -50.640625 L 17.9375 -50.640625 L 17.9375 -28.71875 L 37.328125 -50.640625 L 52.234375 -50.640625 L 33.421875 -29.65625 L 53.46875 0 Z M 38.046875 0 "/></g></g></g><g fill="#ffffff" fill-opacity="0.302"><g transform="translate(79.16979, 306.15789)"><g><path d="M 38.703125 -9.328125 L 16.5625 -9.328125 L 12.875 0 L -0.359375 0 L 21.484375 -50.640625 L 34.71875 -50.640625 L 56.0625 0 L 42.328125 0 Z M 34.9375 -19.09375 L 27.703125 -37.828125 L 20.328125 -19.09375 Z M 34.9375 -19.09375 "/></g></g></g><g fill="#ffffff" fill-opacity="0.302"><g transform="translate(143.119096, 306.15789)"><g><path d="M 46.296875 -42.390625 L 19.25 -10.203125 L 46.734375 -10.203125 L 46.734375 0 L 2.03125 0 L 2.03125 -8.25 L 29.15625 -40.4375 L 2.96875 -40.4375 L 2.96875 -50.640625 L 46.296875 -50.640625 Z M 46.296875 -42.390625 "/></g></g></g><g fill="#ffffff" fill-opacity="0.302"><g transform="translate(200.196111, 306.15789)"><g><path d="M 38.703125 -9.328125 L 16.5625 -9.328125 L 12.875 0 L -0.359375 0 L 21.484375 -50.640625 L 34.71875 -50.640625 L 56.0625 0 L 42.328125 0 Z M 34.9375 -19.09375 L 27.703125 -37.828125 L 20.328125 -19.09375 Z M 34.9375 -19.09375 "/></g></g></g><g fill="#ffffff" fill-opacity="0.502"><g transform="translate(20.718903, 308.554024)"><g><path d="M 38.046875 0 L 24.671875 -19.890625 L 17.9375 -12.4375 L 17.9375 0 L 5.0625 0 L 5.0625 -50.640625 L 17.9375 -50.640625 L 17.9375 -28.71875 L 37.328125 -50.640625 L 52.234375 -50.640625 L 33.421875 -29.65625 L 53.46875 0 Z M 38.046875 0 "/></g></g></g><g fill="#ffffff" fill-opacity="0.502"><g transform="translate(83.004399, 308.554024)"><g><path d="M 38.703125 -9.328125 L 16.5625 -9.328125 L 12.875 0 L -0.359375 0 L 21.484375 -50.640625 L 34.71875 -50.640625 L 56.0625 0 L 42.328125 0 Z M 34.9375 -19.09375 L 27.703125 -37.828125 L 20.328125 -19.09375 Z M 34.9375 -19.09375 "/></g></g></g><g fill="#ffffff" fill-opacity="0.502"><g transform="translate(146.953705, 308.554024)"><g><path d="M 46.296875 -42.390625 L 19.25 -10.203125 L 46.734375 -10.203125 L 46.734375 0 L 2.03125 0 L 2.03125 -8.25 L 29.15625 -40.4375 L 2.96875 -40.4375 L 2.96875 -50.640625 L 46.296875 -50.640625 Z M 46.296875 -42.390625 "/></g></g></g><g fill="#ffffff" fill-opacity="0.502"><g transform="translate(204.03072, 308.554024)"><g><path d="M 38.703125 -9.328125 L 16.5625 -9.328125 L 12.875 0 L -0.359375 0 L 21.484375 -50.640625 L 34.71875 -50.640625 L 56.0625 0 L 42.328125 0 Z M 34.9375 -19.09375 L 27.703125 -37.828125 L 20.328125 -19.09375 Z M 34.9375 -19.09375 "/></g></g></g><g fill="#e43b45" fill-opacity="1"><g transform="translate(24.553542, 310.950169)"><g><path d="M 38.046875 0 L 24.671875 -19.890625 L 17.9375 -12.4375 L 17.9375 0 L 5.0625 0 L 5.0625 -50.640625 L 17.9375 -50.640625 L 17.9375 -28.71875 L 37.328125 -50.640625 L 52.234375 -50.640625 L 33.421875 -29.65625 L 53.46875 0 Z M 38.046875 0 "/></g></g></g><g fill="#e43b45" fill-opacity="1"><g transform="translate(86.839037, 310.950169)"><g><path d="M 38.703125 -9.328125 L 16.5625 -9.328125 L 12.875 0 L -0.359375 0 L 21.484375 -50.640625 L 34.71875 -50.640625 L 56.0625 0 L 42.328125 0 Z M 34.9375 -19.09375 L 27.703125 -37.828125 L 20.328125 -19.09375 Z M 34.9375 -19.09375 "/></g></g></g><g fill="#e43b45" fill-opacity="1"><g transform="translate(150.788343, 310.950169)"><g><path d="M 46.296875 -42.390625 L 19.25 -10.203125 L 46.734375 -10.203125 L 46.734375 0 L 2.03125 0 L 2.03125 -8.25 L 29.15625 -40.4375 L 2.96875 -40.4375 L 2.96875 -50.640625 L 46.296875 -50.640625 Z M 46.296875 -42.390625 "/></g></g></g><g fill="#e43b45" fill-opacity="1"><g transform="translate(207.865359, 310.950169)"><g><path d="M 38.703125 -9.328125 L 16.5625 -9.328125 L 12.875 0 L -0.359375 0 L 21.484375 -50.640625 L 34.71875 -50.640625 L 56.0625 0 L 42.328125 0 Z M 34.9375 -19.09375 L 27.703125 -37.828125 L 20.328125 -19.09375 Z M 34.9375 -19.09375 "/></g></g></g><g fill="#ffffff" fill-opacity="0.302"><g transform="translate(19.811858, 353.682333)"><g><path d="M 12.796875 -22.71875 C 14.472656 -22.71875 16.117188 -22.375 17.734375 -21.6875 C 19.359375 -21 20.738281 -20.078125 21.875 -18.921875 L 18.5625 -14.984375 C 17.832031 -15.890625 16.957031 -16.601562 15.9375 -17.125 C 14.914062 -17.65625 13.90625 -17.921875 12.90625 -17.921875 C 11.125 -17.921875 9.628906 -17.289062 8.421875 -16.03125 C 7.222656 -14.78125 6.625 -13.234375 6.625 -11.390625 C 6.625 -9.503906 7.222656 -7.925781 8.421875 -6.65625 C 9.628906 -5.394531 11.125 -4.765625 12.90625 -4.765625 C 13.84375 -4.765625 14.820312 -5 15.84375 -5.46875 C 16.863281 -5.9375 17.769531 -6.582031 18.5625 -7.40625 L 21.90625 -3.859375 C 20.6875 -2.617188 19.242188 -1.625 17.578125 -0.875 C 15.921875 -0.125 14.265625 0.25 12.609375 0.25 C 9.222656 0.25 6.398438 -0.851562 4.140625 -3.0625 C 1.890625 -5.269531 0.765625 -8.023438 0.765625 -11.328125 C 0.765625 -14.566406 1.910156 -17.273438 4.203125 -19.453125 C 6.503906 -21.628906 9.367188 -22.71875 12.796875 -22.71875 Z M 12.796875 -22.71875 "/></g></g></g><g fill="#ffffff" fill-opacity="0.302"><g transform="translate(46.370856, 353.682333)"><g><path d="M 12.9375 -22.71875 C 16.425781 -22.71875 19.328125 -21.628906 21.640625 -19.453125 C 23.960938 -17.273438 25.125 -14.554688 25.125 -11.296875 C 25.125 -8.015625 23.957031 -5.269531 21.625 -3.0625 C 19.300781 -0.851562 16.398438 0.25 12.921875 0.25 C 9.453125 0.25 6.554688 -0.847656 4.234375 -3.046875 C 1.921875 -5.242188 0.765625 -7.992188 0.765625 -11.296875 C 0.765625 -14.578125 1.921875 -17.300781 4.234375 -19.46875 C 6.554688 -21.632812 9.457031 -22.71875 12.9375 -22.71875 Z M 13 -17.921875 C 11.238281 -17.921875 9.734375 -17.28125 8.484375 -16 C 7.242188 -14.726562 6.625 -13.144531 6.625 -11.25 C 6.625 -9.363281 7.25 -7.769531 8.5 -6.46875 C 9.757812 -5.175781 11.257812 -4.53125 13 -4.53125 C 14.738281 -4.53125 16.210938 -5.175781 17.421875 -6.46875 C 18.628906 -7.769531 19.234375 -9.363281 19.234375 -11.25 C 19.234375 -13.144531 18.628906 -14.726562 17.421875 -16 C 16.210938 -17.28125 14.738281 -17.921875 13 -17.921875 Z M 13 -17.921875 "/></g></g></g><g fill="#ffffff" fill-opacity="0.302"><g transform="translate(76.562815, 353.682333)"><g><path d="M 23.03125 0 L 17.984375 0 L 7.625 -13.859375 L 7.625 0 L 2.25 0 L 2.25 -22.515625 L 7.296875 -22.515625 L 17.6875 -8.625 L 17.6875 -22.515625 L 23.03125 -22.515625 Z M 23.03125 0 "/></g></g></g><g fill="#ffffff" fill-opacity="0.302"><g transform="translate(106.143914, 353.682333)"><g><path d="M 10.90625 -22.78125 C 14.269531 -22.78125 17.226562 -21.941406 19.78125 -20.265625 L 17.625 -15.796875 C 16.445312 -16.484375 15.179688 -17.046875 13.828125 -17.484375 C 12.484375 -17.921875 11.347656 -18.140625 10.421875 -18.140625 C 8.773438 -18.140625 7.953125 -17.59375 7.953125 -16.5 C 7.953125 -15.789062 8.359375 -15.222656 9.171875 -14.796875 C 9.984375 -14.367188 10.972656 -14 12.140625 -13.6875 C 13.304688 -13.375 14.472656 -13 15.640625 -12.5625 C 16.816406 -12.125 17.8125 -11.410156 18.625 -10.421875 C 19.4375 -9.429688 19.84375 -8.1875 19.84375 -6.6875 C 19.84375 -4.519531 18.992188 -2.832031 17.296875 -1.625 C 15.609375 -0.414062 13.457031 0.1875 10.84375 0.1875 C 8.976562 0.1875 7.132812 -0.128906 5.3125 -0.765625 C 3.488281 -1.410156 1.898438 -2.289062 0.546875 -3.40625 L 2.765625 -7.8125 C 3.898438 -6.832031 5.238281 -6.023438 6.78125 -5.390625 C 8.332031 -4.753906 9.707031 -4.4375 10.90625 -4.4375 C 11.832031 -4.4375 12.550781 -4.601562 13.0625 -4.9375 C 13.570312 -5.269531 13.828125 -5.757812 13.828125 -6.40625 C 13.828125 -7.019531 13.53125 -7.535156 12.9375 -7.953125 C 12.351562 -8.378906 11.617188 -8.691406 10.734375 -8.890625 C 9.859375 -9.097656 8.90625 -9.375 7.875 -9.71875 C 6.851562 -10.0625 5.898438 -10.4375 5.015625 -10.84375 C 4.140625 -11.25 3.40625 -11.894531 2.8125 -12.78125 C 2.226562 -13.675781 1.9375 -14.742188 1.9375 -15.984375 C 1.9375 -18.046875 2.753906 -19.691406 4.390625 -20.921875 C 6.035156 -22.160156 8.207031 -22.78125 10.90625 -22.78125 Z M 10.90625 -22.78125 "/></g></g></g><g fill="#ffffff" fill-opacity="0.302"><g transform="translate(131.159687, 353.682333)"><g><path d="M 19.46875 -17.921875 L 12.671875 -17.921875 L 12.671875 0 L 6.953125 0 L 6.953125 -17.921875 L 0.21875 -17.921875 L 0.21875 -22.546875 L 19.46875 -22.546875 Z M 19.46875 -17.921875 "/></g></g></g><g fill="#ffffff" fill-opacity="0.302"><g transform="translate(155.114522, 353.682333)"><g><path d="M 15.828125 0 L 12.484375 -6.34375 L 7.984375 -6.34375 L 7.984375 0 L 2.25 0 L 2.25 -22.515625 L 12.328125 -22.515625 C 15.304688 -22.515625 17.609375 -21.832031 19.234375 -20.46875 C 20.867188 -19.113281 21.6875 -17.179688 21.6875 -14.671875 C 21.6875 -11.191406 20.320312 -8.78125 17.59375 -7.4375 L 22.328125 0 Z M 7.984375 -10.84375 L 12.328125 -10.84375 C 13.566406 -10.84375 14.53125 -11.148438 15.21875 -11.765625 C 15.90625 -12.390625 16.25 -13.296875 16.25 -14.484375 C 16.25 -15.640625 15.90625 -16.515625 15.21875 -17.109375 C 14.53125 -17.710938 13.566406 -18.015625 12.328125 -18.015625 L 7.984375 -18.015625 Z M 7.984375 -10.84375 "/></g></g></g><g fill="#ffffff" fill-opacity="0.302"><g transform="translate(182.702318, 353.682333)"><g><path d="M 22.515625 -22.515625 L 22.515625 -9.453125 C 22.515625 -6.472656 21.59375 -4.109375 19.75 -2.359375 C 17.90625 -0.617188 15.40625 0.25 12.25 0.25 C 9.082031 0.25 6.554688 -0.617188 4.671875 -2.359375 C 2.796875 -4.109375 1.859375 -6.472656 1.859375 -9.453125 L 1.859375 -22.515625 L 7.59375 -22.515625 L 7.59375 -9.453125 C 7.59375 -7.953125 8.023438 -6.753906 8.890625 -5.859375 C 9.765625 -4.972656 10.898438 -4.53125 12.296875 -4.53125 C 13.660156 -4.53125 14.753906 -4.96875 15.578125 -5.84375 C 16.410156 -6.726562 16.828125 -7.929688 16.828125 -9.453125 L 16.828125 -22.515625 Z M 22.515625 -22.515625 "/></g></g></g><g fill="#ffffff" fill-opacity="0.302"><g transform="translate(211.383207, 353.682333)"><g><path d="M 18.5625 -7.40625 L 21.90625 -3.859375 C 19.757812 -1.648438 17.1875 -0.320312 14.1875 0.125 L 13.421875 1.640625 C 14.078125 1.804688 14.601562 2.117188 15 2.578125 C 15.40625 3.046875 15.609375 3.601562 15.609375 4.25 C 15.609375 5.257812 15.226562 6.0625 14.46875 6.65625 C 13.71875 7.257812 12.753906 7.5625 11.578125 7.5625 C 10.523438 7.5625 9.507812 7.226562 8.53125 6.5625 L 9.5625 4.28125 C 10.03125 4.707031 10.550781 4.921875 11.125 4.921875 C 11.539062 4.921875 11.867188 4.804688 12.109375 4.578125 C 12.359375 4.359375 12.484375 4.078125 12.484375 3.734375 C 12.484375 3.390625 12.351562 3.109375 12.09375 2.890625 C 11.832031 2.679688 11.46875 2.578125 11 2.578125 C 10.738281 2.578125 10.351562 2.617188 9.84375 2.703125 L 11.0625 0.15625 C 8.0625 -0.1875 5.59375 -1.425781 3.65625 -3.5625 C 1.726562 -5.707031 0.765625 -8.296875 0.765625 -11.328125 C 0.765625 -14.566406 1.910156 -17.273438 4.203125 -19.453125 C 6.503906 -21.628906 9.367188 -22.71875 12.796875 -22.71875 C 14.472656 -22.71875 16.117188 -22.375 17.734375 -21.6875 C 19.359375 -21 20.738281 -20.078125 21.875 -18.921875 L 18.5625 -14.984375 C 17.832031 -15.890625 16.957031 -16.601562 15.9375 -17.125 C 14.914062 -17.65625 13.90625 -17.921875 12.90625 -17.921875 C 11.125 -17.921875 9.628906 -17.289062 8.421875 -16.03125 C 7.222656 -14.78125 6.625 -13.234375 6.625 -11.390625 C 6.625 -9.503906 7.222656 -7.925781 8.421875 -6.65625 C 9.628906 -5.394531 11.125 -4.765625 12.90625 -4.765625 C 13.84375 -4.765625 14.820312 -5 15.84375 -5.46875 C 16.863281 -5.9375 17.769531 -6.582031 18.5625 -7.40625 Z M 18.5625 -7.40625 "/></g></g></g><g fill="#ffffff" fill-opacity="0.302"><g transform="translate(237.942208, 353.682333)"><g><path d="M 10.359375 -30.171875 C 11.066406 -30.171875 11.804688 -29.921875 12.578125 -29.421875 C 13.347656 -28.921875 13.84375 -28.671875 14.0625 -28.671875 C 14.726562 -28.671875 15.0625 -29.117188 15.0625 -30.015625 L 18.4375 -30.015625 C 18.4375 -26.691406 17.320312 -25.03125 15.09375 -25.03125 C 14.34375 -25.03125 13.582031 -25.28125 12.8125 -25.78125 C 12.050781 -26.289062 11.566406 -26.546875 11.359375 -26.546875 C 10.710938 -26.546875 10.390625 -26.082031 10.390625 -25.15625 L 6.984375 -25.15625 C 6.984375 -28.5 8.109375 -30.171875 10.359375 -30.171875 Z M 12.9375 -22.71875 C 16.425781 -22.71875 19.328125 -21.628906 21.640625 -19.453125 C 23.960938 -17.273438 25.125 -14.554688 25.125 -11.296875 C 25.125 -8.015625 23.957031 -5.269531 21.625 -3.0625 C 19.300781 -0.851562 16.398438 0.25 12.921875 0.25 C 9.453125 0.25 6.554688 -0.847656 4.234375 -3.046875 C 1.921875 -5.242188 0.765625 -7.992188 0.765625 -11.296875 C 0.765625 -14.578125 1.921875 -17.300781 4.234375 -19.46875 C 6.554688 -21.632812 9.457031 -22.71875 12.9375 -22.71875 Z M 13 -17.921875 C 11.238281 -17.921875 9.734375 -17.28125 8.484375 -16 C 7.242188 -14.726562 6.625 -13.144531 6.625 -11.25 C 6.625 -9.363281 7.25 -7.769531 8.5 -6.46875 C 9.757812 -5.175781 11.257812 -4.53125 13 -4.53125 C 14.738281 -4.53125 16.210938 -5.175781 17.421875 -6.46875 C 18.628906 -7.769531 19.234375 -9.363281 19.234375 -11.25 C 19.234375 -13.144531 18.628906 -14.726562 17.421875 -16 C 16.210938 -17.28125 14.738281 -17.921875 13 -17.921875 Z M 13 -17.921875 "/></g></g></g><g fill="#ffffff" fill-opacity="0.302"><g transform="translate(268.13417, 353.682333)"><g><path d="M 19.875 -18.015625 L 7.984375 -18.015625 L 7.984375 -13.546875 L 18.71875 -13.546875 L 18.71875 -9.046875 L 7.984375 -9.046875 L 7.984375 -4.5 L 20.234375 -4.5 L 20.234375 0 L 2.25 0 L 2.25 -22.515625 L 19.875 -22.515625 Z M 19.875 -18.015625 "/></g></g></g><g fill="#ffffff" fill-opacity="0.302"><g transform="translate(294.114456, 353.682333)"><g><path d="M 10.90625 -22.78125 C 14.269531 -22.78125 17.226562 -21.941406 19.78125 -20.265625 L 17.625 -15.796875 C 16.445312 -16.484375 15.179688 -17.046875 13.828125 -17.484375 C 12.484375 -17.921875 11.347656 -18.140625 10.421875 -18.140625 C 8.773438 -18.140625 7.953125 -17.59375 7.953125 -16.5 C 7.953125 -15.789062 8.359375 -15.222656 9.171875 -14.796875 C 9.984375 -14.367188 10.972656 -14 12.140625 -13.6875 C 13.304688 -13.375 14.472656 -13 15.640625 -12.5625 C 16.816406 -12.125 17.8125 -11.410156 18.625 -10.421875 C 19.4375 -9.429688 19.84375 -8.1875 19.84375 -6.6875 C 19.84375 -4.519531 18.992188 -2.832031 17.296875 -1.625 C 15.609375 -0.414062 13.457031 0.1875 10.84375 0.1875 C 8.976562 0.1875 7.132812 -0.128906 5.3125 -0.765625 C 3.488281 -1.410156 1.898438 -2.289062 0.546875 -3.40625 L 2.765625 -7.8125 C 3.898438 -6.832031 5.238281 -6.023438 6.78125 -5.390625 C 8.332031 -4.753906 9.707031 -4.4375 10.90625 -4.4375 C 11.832031 -4.4375 12.550781 -4.601562 13.0625 -4.9375 C 13.570312 -5.269531 13.828125 -5.757812 13.828125 -6.40625 C 13.828125 -7.019531 13.53125 -7.535156 12.9375 -7.953125 C 12.351562 -8.378906 11.617188 -8.691406 10.734375 -8.890625 C 9.859375 -9.097656 8.90625 -9.375 7.875 -9.71875 C 6.851562 -10.0625 5.898438 -10.4375 5.015625 -10.84375 C 4.140625 -11.25 3.40625 -11.894531 2.8125 -12.78125 C 2.226562 -13.675781 1.9375 -14.742188 1.9375 -15.984375 C 1.9375 -18.046875 2.753906 -19.691406 4.390625 -20.921875 C 6.035156 -22.160156 8.207031 -22.78125 10.90625 -22.78125 Z M 10.90625 -22.78125 "/></g></g></g><g fill="#ffffff" fill-opacity="0.502"><g transform="translate(23.832739, 353.752497)"><g><path d="M 12.796875 -22.71875 C 14.472656 -22.71875 16.117188 -22.375 17.734375 -21.6875 C 19.359375 -21 20.738281 -20.078125 21.875 -18.921875 L 18.5625 -14.984375 C 17.832031 -15.890625 16.957031 -16.601562 15.9375 -17.125 C 14.914062 -17.65625 13.90625 -17.921875 12.90625 -17.921875 C 11.125 -17.921875 9.628906 -17.289062 8.421875 -16.03125 C 7.222656 -14.78125 6.625 -13.234375 6.625 -11.390625 C 6.625 -9.503906 7.222656 -7.925781 8.421875 -6.65625 C 9.628906 -5.394531 11.125 -4.765625 12.90625 -4.765625 C 13.84375 -4.765625 14.820312 -5 15.84375 -5.46875 C 16.863281 -5.9375 17.769531 -6.582031 18.5625 -7.40625 L 21.90625 -3.859375 C 20.6875 -2.617188 19.242188 -1.625 17.578125 -0.875 C 15.921875 -0.125 14.265625 0.25 12.609375 0.25 C 9.222656 0.25 6.398438 -0.851562 4.140625 -3.0625 C 1.890625 -5.269531 0.765625 -8.023438 0.765625 -11.328125 C 0.765625 -14.566406 1.910156 -17.273438 4.203125 -19.453125 C 6.503906 -21.628906 9.367188 -22.71875 12.796875 -22.71875 Z M 12.796875 -22.71875 "/></g></g></g><g fill="#ffffff" fill-opacity="0.502"><g transform="translate(50.391736, 353.752497)"><g><path d="M 12.9375 -22.71875 C 16.425781 -22.71875 19.328125 -21.628906 21.640625 -19.453125 C 23.960938 -17.273438 25.125 -14.554688 25.125 -11.296875 C 25.125 -8.015625 23.957031 -5.269531 21.625 -3.0625 C 19.300781 -0.851562 16.398438 0.25 12.921875 0.25 C 9.453125 0.25 6.554688 -0.847656 4.234375 -3.046875 C 1.921875 -5.242188 0.765625 -7.992188 0.765625 -11.296875 C 0.765625 -14.578125 1.921875 -17.300781 4.234375 -19.46875 C 6.554688 -21.632812 9.457031 -22.71875 12.9375 -22.71875 Z M 13 -17.921875 C 11.238281 -17.921875 9.734375 -17.28125 8.484375 -16 C 7.242188 -14.726562 6.625 -13.144531 6.625 -11.25 C 6.625 -9.363281 7.25 -7.769531 8.5 -6.46875 C 9.757812 -5.175781 11.257812 -4.53125 13 -4.53125 C 14.738281 -4.53125 16.210938 -5.175781 17.421875 -6.46875 C 18.628906 -7.769531 19.234375 -9.363281 19.234375 -11.25 C 19.234375 -13.144531 18.628906 -14.726562 17.421875 -16 C 16.210938 -17.28125 14.738281 -17.921875 13 -17.921875 Z M 13 -17.921875 "/></g></g></g><g fill="#ffffff" fill-opacity="0.502"><g transform="translate(80.583696, 353.752497)"><g><path d="M 23.03125 0 L 17.984375 0 L 7.625 -13.859375 L 7.625 0 L 2.25 0 L 2.25 -22.515625 L 7.296875 -22.515625 L 17.6875 -8.625 L 17.6875 -22.515625 L 23.03125 -22.515625 Z M 23.03125 0 "/></g></g></g><g fill="#ffffff" fill-opacity="0.502"><g transform="translate(110.164794, 353.752497)"><g><path d="M 10.90625 -22.78125 C 14.269531 -22.78125 17.226562 -21.941406 19.78125 -20.265625 L 17.625 -15.796875 C 16.445312 -16.484375 15.179688 -17.046875 13.828125 -17.484375 C 12.484375 -17.921875 11.347656 -18.140625 10.421875 -18.140625 C 8.773438 -18.140625 7.953125 -17.59375 7.953125 -16.5 C 7.953125 -15.789062 8.359375 -15.222656 9.171875 -14.796875 C 9.984375 -14.367188 10.972656 -14 12.140625 -13.6875 C 13.304688 -13.375 14.472656 -13 15.640625 -12.5625 C 16.816406 -12.125 17.8125 -11.410156 18.625 -10.421875 C 19.4375 -9.429688 19.84375 -8.1875 19.84375 -6.6875 C 19.84375 -4.519531 18.992188 -2.832031 17.296875 -1.625 C 15.609375 -0.414062 13.457031 0.1875 10.84375 0.1875 C 8.976562 0.1875 7.132812 -0.128906 5.3125 -0.765625 C 3.488281 -1.410156 1.898438 -2.289062 0.546875 -3.40625 L 2.765625 -7.8125 C 3.898438 -6.832031 5.238281 -6.023438 6.78125 -5.390625 C 8.332031 -4.753906 9.707031 -4.4375 10.90625 -4.4375 C 11.832031 -4.4375 12.550781 -4.601562 13.0625 -4.9375 C 13.570312 -5.269531 13.828125 -5.757812 13.828125 -6.40625 C 13.828125 -7.019531 13.53125 -7.535156 12.9375 -7.953125 C 12.351562 -8.378906 11.617188 -8.691406 10.734375 -8.890625 C 9.859375 -9.097656 8.90625 -9.375 7.875 -9.71875 C 6.851562 -10.0625 5.898438 -10.4375 5.015625 -10.84375 C 4.140625 -11.25 3.40625 -11.894531 2.8125 -12.78125 C 2.226562 -13.675781 1.9375 -14.742188 1.9375 -15.984375 C 1.9375 -18.046875 2.753906 -19.691406 4.390625 -20.921875 C 6.035156 -22.160156 8.207031 -22.78125 10.90625 -22.78125 Z M 10.90625 -22.78125 "/></g></g></g><g fill="#ffffff" fill-opacity="0.502"><g transform="translate(135.180567, 353.752497)"><g><path d="M 19.46875 -17.921875 L 12.671875 -17.921875 L 12.671875 0 L 6.953125 0 L 6.953125 -17.921875 L 0.21875 -17.921875 L 0.21875 -22.546875 L 19.46875 -22.546875 Z M 19.46875 -17.921875 "/></g></g></g><g fill="#ffffff" fill-opacity="0.502"><g transform="translate(159.135403, 353.752497)"><g><path d="M 15.828125 0 L 12.484375 -6.34375 L 7.984375 -6.34375 L 7.984375 0 L 2.25 0 L 2.25 -22.515625 L 12.328125 -22.515625 C 15.304688 -22.515625 17.609375 -21.832031 19.234375 -20.46875 C 20.867188 -19.113281 21.6875 -17.179688 21.6875 -14.671875 C 21.6875 -11.191406 20.320312 -8.78125 17.59375 -7.4375 L 22.328125 0 Z M 7.984375 -10.84375 L 12.328125 -10.84375 C 13.566406 -10.84375 14.53125 -11.148438 15.21875 -11.765625 C 15.90625 -12.390625 16.25 -13.296875 16.25 -14.484375 C 16.25 -15.640625 15.90625 -16.515625 15.21875 -17.109375 C 14.53125 -17.710938 13.566406 -18.015625 12.328125 -18.015625 L 7.984375 -18.015625 Z M 7.984375 -10.84375 "/></g></g></g><g fill="#ffffff" fill-opacity="0.502"><g transform="translate(186.723199, 353.752497)"><g><path d="M 22.515625 -22.515625 L 22.515625 -9.453125 C 22.515625 -6.472656 21.59375 -4.109375 19.75 -2.359375 C 17.90625 -0.617188 15.40625 0.25 12.25 0.25 C 9.082031 0.25 6.554688 -0.617188 4.671875 -2.359375 C 2.796875 -4.109375 1.859375 -6.472656 1.859375 -9.453125 L 1.859375 -22.515625 L 7.59375 -22.515625 L 7.59375 -9.453125 C 7.59375 -7.953125 8.023438 -6.753906 8.890625 -5.859375 C 9.765625 -4.972656 10.898438 -4.53125 12.296875 -4.53125 C 13.660156 -4.53125 14.753906 -4.96875 15.578125 -5.84375 C 16.410156 -6.726562 16.828125 -7.929688 16.828125 -9.453125 L 16.828125 -22.515625 Z M 22.515625 -22.515625 "/></g></g></g><g fill="#ffffff" fill-opacity="0.502"><g transform="translate(215.404088, 353.752497)"><g><path d="M 18.5625 -7.40625 L 21.90625 -3.859375 C 19.757812 -1.648438 17.1875 -0.320312 14.1875 0.125 L 13.421875 1.640625 C 14.078125 1.804688 14.601562 2.117188 15 2.578125 C 15.40625 3.046875 15.609375 3.601562 15.609375 4.25 C 15.609375 5.257812 15.226562 6.0625 14.46875 6.65625 C 13.71875 7.257812 12.753906 7.5625 11.578125 7.5625 C 10.523438 7.5625 9.507812 7.226562 8.53125 6.5625 L 9.5625 4.28125 C 10.03125 4.707031 10.550781 4.921875 11.125 4.921875 C 11.539062 4.921875 11.867188 4.804688 12.109375 4.578125 C 12.359375 4.359375 12.484375 4.078125 12.484375 3.734375 C 12.484375 3.390625 12.351562 3.109375 12.09375 2.890625 C 11.832031 2.679688 11.46875 2.578125 11 2.578125 C 10.738281 2.578125 10.351562 2.617188 9.84375 2.703125 L 11.0625 0.15625 C 8.0625 -0.1875 5.59375 -1.425781 3.65625 -3.5625 C 1.726562 -5.707031 0.765625 -8.296875 0.765625 -11.328125 C 0.765625 -14.566406 1.910156 -17.273438 4.203125 -19.453125 C 6.503906 -21.628906 9.367188 -22.71875 12.796875 -22.71875 C 14.472656 -22.71875 16.117188 -22.375 17.734375 -21.6875 C 19.359375 -21 20.738281 -20.078125 21.875 -18.921875 L 18.5625 -14.984375 C 17.832031 -15.890625 16.957031 -16.601562 15.9375 -17.125 C 14.914062 -17.65625 13.90625 -17.921875 12.90625 -17.921875 C 11.125 -17.921875 9.628906 -17.289062 8.421875 -16.03125 C 7.222656 -14.78125 6.625 -13.234375 6.625 -11.390625 C 6.625 -9.503906 7.222656 -7.925781 8.421875 -6.65625 C 9.628906 -5.394531 11.125 -4.765625 12.90625 -4.765625 C 13.84375 -4.765625 14.820312 -5 15.84375 -5.46875 C 16.863281 -5.9375 17.769531 -6.582031 18.5625 -7.40625 Z M 18.5625 -7.40625 "/></g></g></g><g fill="#ffffff" fill-opacity="0.502"><g transform="translate(241.963088, 353.752497)"><g><path d="M 10.359375 -30.171875 C 11.066406 -30.171875 11.804688 -29.921875 12.578125 -29.421875 C 13.347656 -28.921875 13.84375 -28.671875 14.0625 -28.671875 C 14.726562 -28.671875 15.0625 -29.117188 15.0625 -30.015625 L 18.4375 -30.015625 C 18.4375 -26.691406 17.320312 -25.03125 15.09375 -25.03125 C 14.34375 -25.03125 13.582031 -25.28125 12.8125 -25.78125 C 12.050781 -26.289062 11.566406 -26.546875 11.359375 -26.546875 C 10.710938 -26.546875 10.390625 -26.082031 10.390625 -25.15625 L 6.984375 -25.15625 C 6.984375 -28.5 8.109375 -30.171875 10.359375 -30.171875 Z M 12.9375 -22.71875 C 16.425781 -22.71875 19.328125 -21.628906 21.640625 -19.453125 C 23.960938 -17.273438 25.125 -14.554688 25.125 -11.296875 C 25.125 -8.015625 23.957031 -5.269531 21.625 -3.0625 C 19.300781 -0.851562 16.398438 0.25 12.921875 0.25 C 9.453125 0.25 6.554688 -0.847656 4.234375 -3.046875 C 1.921875 -5.242188 0.765625 -7.992188 0.765625 -11.296875 C 0.765625 -14.578125 1.921875 -17.300781 4.234375 -19.46875 C 6.554688 -21.632812 9.457031 -22.71875 12.9375 -22.71875 Z M 13 -17.921875 C 11.238281 -17.921875 9.734375 -17.28125 8.484375 -16 C 7.242188 -14.726562 6.625 -13.144531 6.625 -11.25 C 6.625 -9.363281 7.25 -7.769531 8.5 -6.46875 C 9.757812 -5.175781 11.257812 -4.53125 13 -4.53125 C 14.738281 -4.53125 16.210938 -5.175781 17.421875 -6.46875 C 18.628906 -7.769531 19.234375 -9.363281 19.234375 -11.25 C 19.234375 -13.144531 18.628906 -14.726562 17.421875 -16 C 16.210938 -17.28125 14.738281 -17.921875 13 -17.921875 Z M 13 -17.921875 "/></g></g></g><g fill="#ffffff" fill-opacity="0.502"><g transform="translate(272.155051, 353.752497)"><g><path d="M 19.875 -18.015625 L 7.984375 -18.015625 L 7.984375 -13.546875 L 18.71875 -13.546875 L 18.71875 -9.046875 L 7.984375 -9.046875 L 7.984375 -4.5 L 20.234375 -4.5 L 20.234375 0 L 2.25 0 L 2.25 -22.515625 L 19.875 -22.515625 Z M 19.875 -18.015625 "/></g></g></g><g fill="#ffffff" fill-opacity="0.502"><g transform="translate(298.135336, 353.752497)"><g><path d="M 10.90625 -22.78125 C 14.269531 -22.78125 17.226562 -21.941406 19.78125 -20.265625 L 17.625 -15.796875 C 16.445312 -16.484375 15.179688 -17.046875 13.828125 -17.484375 C 12.484375 -17.921875 11.347656 -18.140625 10.421875 -18.140625 C 8.773438 -18.140625 7.953125 -17.59375 7.953125 -16.5 C 7.953125 -15.789062 8.359375 -15.222656 9.171875 -14.796875 C 9.984375 -14.367188 10.972656 -14 12.140625 -13.6875 C 13.304688 -13.375 14.472656 -13 15.640625 -12.5625 C 16.816406 -12.125 17.8125 -11.410156 18.625 -10.421875 C 19.4375 -9.429688 19.84375 -8.1875 19.84375 -6.6875 C 19.84375 -4.519531 18.992188 -2.832031 17.296875 -1.625 C 15.609375 -0.414062 13.457031 0.1875 10.84375 0.1875 C 8.976562 0.1875 7.132812 -0.128906 5.3125 -0.765625 C 3.488281 -1.410156 1.898438 -2.289062 0.546875 -3.40625 L 2.765625 -7.8125 C 3.898438 -6.832031 5.238281 -6.023438 6.78125 -5.390625 C 8.332031 -4.753906 9.707031 -4.4375 10.90625 -4.4375 C 11.832031 -4.4375 12.550781 -4.601562 13.0625 -4.9375 C 13.570312 -5.269531 13.828125 -5.757812 13.828125 -6.40625 C 13.828125 -7.019531 13.53125 -7.535156 12.9375 -7.953125 C 12.351562 -8.378906 11.617188 -8.691406 10.734375 -8.890625 C 9.859375 -9.097656 8.90625 -9.375 7.875 -9.71875 C 6.851562 -10.0625 5.898438 -10.4375 5.015625 -10.84375 C 4.140625 -11.25 3.40625 -11.894531 2.8125 -12.78125 C 2.226562 -13.675781 1.9375 -14.742188 1.9375 -15.984375 C 1.9375 -18.046875 2.753906 -19.691406 4.390625 -20.921875 C 6.035156 -22.160156 8.207031 -22.78125 10.90625 -22.78125 Z M 10.90625 -22.78125 "/></g></g></g><g fill="#1e3456" fill-opacity="1"><g transform="translate(27.853617, 353.822695)"><g><path d="M 12.796875 -22.71875 C 14.472656 -22.71875 16.117188 -22.375 17.734375 -21.6875 C 19.359375 -21 20.738281 -20.078125 21.875 -18.921875 L 18.5625 -14.984375 C 17.832031 -15.890625 16.957031 -16.601562 15.9375 -17.125 C 14.914062 -17.65625 13.90625 -17.921875 12.90625 -17.921875 C 11.125 -17.921875 9.628906 -17.289062 8.421875 -16.03125 C 7.222656 -14.78125 6.625 -13.234375 6.625 -11.390625 C 6.625 -9.503906 7.222656 -7.925781 8.421875 -6.65625 C 9.628906 -5.394531 11.125 -4.765625 12.90625 -4.765625 C 13.84375 -4.765625 14.820312 -5 15.84375 -5.46875 C 16.863281 -5.9375 17.769531 -6.582031 18.5625 -7.40625 L 21.90625 -3.859375 C 20.6875 -2.617188 19.242188 -1.625 17.578125 -0.875 C 15.921875 -0.125 14.265625 0.25 12.609375 0.25 C 9.222656 0.25 6.398438 -0.851562 4.140625 -3.0625 C 1.890625 -5.269531 0.765625 -8.023438 0.765625 -11.328125 C 0.765625 -14.566406 1.910156 -17.273438 4.203125 -19.453125 C 6.503906 -21.628906 9.367188 -22.71875 12.796875 -22.71875 Z M 12.796875 -22.71875 "/></g></g></g><g fill="#1e3456" fill-opacity="1"><g transform="translate(54.412614, 353.822695)"><g><path d="M 12.9375 -22.71875 C 16.425781 -22.71875 19.328125 -21.628906 21.640625 -19.453125 C 23.960938 -17.273438 25.125 -14.554688 25.125 -11.296875 C 25.125 -8.015625 23.957031 -5.269531 21.625 -3.0625 C 19.300781 -0.851562 16.398438 0.25 12.921875 0.25 C 9.453125 0.25 6.554688 -0.847656 4.234375 -3.046875 C 1.921875 -5.242188 0.765625 -7.992188 0.765625 -11.296875 C 0.765625 -14.578125 1.921875 -17.300781 4.234375 -19.46875 C 6.554688 -21.632812 9.457031 -22.71875 12.9375 -22.71875 Z M 13 -17.921875 C 11.238281 -17.921875 9.734375 -17.28125 8.484375 -16 C 7.242188 -14.726562 6.625 -13.144531 6.625 -11.25 C 6.625 -9.363281 7.25 -7.769531 8.5 -6.46875 C 9.757812 -5.175781 11.257812 -4.53125 13 -4.53125 C 14.738281 -4.53125 16.210938 -5.175781 17.421875 -6.46875 C 18.628906 -7.769531 19.234375 -9.363281 19.234375 -11.25 C 19.234375 -13.144531 18.628906 -14.726562 17.421875 -16 C 16.210938 -17.28125 14.738281 -17.921875 13 -17.921875 Z M 13 -17.921875 "/></g></g></g><g fill="#1e3456" fill-opacity="1"><g transform="translate(84.604574, 353.822695)"><g><path d="M 23.03125 0 L 17.984375 0 L 7.625 -13.859375 L 7.625 0 L 2.25 0 L 2.25 -22.515625 L 7.296875 -22.515625 L 17.6875 -8.625 L 17.6875 -22.515625 L 23.03125 -22.515625 Z M 23.03125 0 "/></g></g></g><g fill="#1e3456" fill-opacity="1"><g transform="translate(114.185672, 353.822695)"><g><path d="M 10.90625 -22.78125 C 14.269531 -22.78125 17.226562 -21.941406 19.78125 -20.265625 L 17.625 -15.796875 C 16.445312 -16.484375 15.179688 -17.046875 13.828125 -17.484375 C 12.484375 -17.921875 11.347656 -18.140625 10.421875 -18.140625 C 8.773438 -18.140625 7.953125 -17.59375 7.953125 -16.5 C 7.953125 -15.789062 8.359375 -15.222656 9.171875 -14.796875 C 9.984375 -14.367188 10.972656 -14 12.140625 -13.6875 C 13.304688 -13.375 14.472656 -13 15.640625 -12.5625 C 16.816406 -12.125 17.8125 -11.410156 18.625 -10.421875 C 19.4375 -9.429688 19.84375 -8.1875 19.84375 -6.6875 C 19.84375 -4.519531 18.992188 -2.832031 17.296875 -1.625 C 15.609375 -0.414062 13.457031 0.1875 10.84375 0.1875 C 8.976562 0.1875 7.132812 -0.128906 5.3125 -0.765625 C 3.488281 -1.410156 1.898438 -2.289062 0.546875 -3.40625 L 2.765625 -7.8125 C 3.898438 -6.832031 5.238281 -6.023438 6.78125 -5.390625 C 8.332031 -4.753906 9.707031 -4.4375 10.90625 -4.4375 C 11.832031 -4.4375 12.550781 -4.601562 13.0625 -4.9375 C 13.570312 -5.269531 13.828125 -5.757812 13.828125 -6.40625 C 13.828125 -7.019531 13.53125 -7.535156 12.9375 -7.953125 C 12.351562 -8.378906 11.617188 -8.691406 10.734375 -8.890625 C 9.859375 -9.097656 8.90625 -9.375 7.875 -9.71875 C 6.851562 -10.0625 5.898438 -10.4375 5.015625 -10.84375 C 4.140625 -11.25 3.40625 -11.894531 2.8125 -12.78125 C 2.226562 -13.675781 1.9375 -14.742188 1.9375 -15.984375 C 1.9375 -18.046875 2.753906 -19.691406 4.390625 -20.921875 C 6.035156 -22.160156 8.207031 -22.78125 10.90625 -22.78125 Z M 10.90625 -22.78125 "/></g></g></g><g fill="#1e3456" fill-opacity="1"><g transform="translate(139.201445, 353.822695)"><g><path d="M 19.46875 -17.921875 L 12.671875 -17.921875 L 12.671875 0 L 6.953125 0 L 6.953125 -17.921875 L 0.21875 -17.921875 L 0.21875 -22.546875 L 19.46875 -22.546875 Z M 19.46875 -17.921875 "/></g></g></g><g fill="#1e3456" fill-opacity="1"><g transform="translate(163.156281, 353.822695)"><g><path d="M 15.828125 0 L 12.484375 -6.34375 L 7.984375 -6.34375 L 7.984375 0 L 2.25 0 L 2.25 -22.515625 L 12.328125 -22.515625 C 15.304688 -22.515625 17.609375 -21.832031 19.234375 -20.46875 C 20.867188 -19.113281 21.6875 -17.179688 21.6875 -14.671875 C 21.6875 -11.191406 20.320312 -8.78125 17.59375 -7.4375 L 22.328125 0 Z M 7.984375 -10.84375 L 12.328125 -10.84375 C 13.566406 -10.84375 14.53125 -11.148438 15.21875 -11.765625 C 15.90625 -12.390625 16.25 -13.296875 16.25 -14.484375 C 16.25 -15.640625 15.90625 -16.515625 15.21875 -17.109375 C 14.53125 -17.710938 13.566406 -18.015625 12.328125 -18.015625 L 7.984375 -18.015625 Z M 7.984375 -10.84375 "/></g></g></g><g fill="#1e3456" fill-opacity="1"><g transform="translate(190.744077, 353.822695)"><g><path d="M 22.515625 -22.515625 L 22.515625 -9.453125 C 22.515625 -6.472656 21.59375 -4.109375 19.75 -2.359375 C 17.90625 -0.617188 15.40625 0.25 12.25 0.25 C 9.082031 0.25 6.554688 -0.617188 4.671875 -2.359375 C 2.796875 -4.109375 1.859375 -6.472656 1.859375 -9.453125 L 1.859375 -22.515625 L 7.59375 -22.515625 L 7.59375 -9.453125 C 7.59375 -7.953125 8.023438 -6.753906 8.890625 -5.859375 C 9.765625 -4.972656 10.898438 -4.53125 12.296875 -4.53125 C 13.660156 -4.53125 14.753906 -4.96875 15.578125 -5.84375 C 16.410156 -6.726562 16.828125 -7.929688 16.828125 -9.453125 L 16.828125 -22.515625 Z M 22.515625 -22.515625 "/></g></g></g><g fill="#1e3456" fill-opacity="1"><g transform="translate(219.424966, 353.822695)"><g><path d="M 18.5625 -7.40625 L 21.90625 -3.859375 C 19.757812 -1.648438 17.1875 -0.320312 14.1875 0.125 L 13.421875 1.640625 C 14.078125 1.804688 14.601562 2.117188 15 2.578125 C 15.40625 3.046875 15.609375 3.601562 15.609375 4.25 C 15.609375 5.257812 15.226562 6.0625 14.46875 6.65625 C 13.71875 7.257812 12.753906 7.5625 11.578125 7.5625 C 10.523438 7.5625 9.507812 7.226562 8.53125 6.5625 L 9.5625 4.28125 C 10.03125 4.707031 10.550781 4.921875 11.125 4.921875 C 11.539062 4.921875 11.867188 4.804688 12.109375 4.578125 C 12.359375 4.359375 12.484375 4.078125 12.484375 3.734375 C 12.484375 3.390625 12.351562 3.109375 12.09375 2.890625 C 11.832031 2.679688 11.46875 2.578125 11 2.578125 C 10.738281 2.578125 10.351562 2.617188 9.84375 2.703125 L 11.0625 0.15625 C 8.0625 -0.1875 5.59375 -1.425781 3.65625 -3.5625 C 1.726562 -5.707031 0.765625 -8.296875 0.765625 -11.328125 C 0.765625 -14.566406 1.910156 -17.273438 4.203125 -19.453125 C 6.503906 -21.628906 9.367188 -22.71875 12.796875 -22.71875 C 14.472656 -22.71875 16.117188 -22.375 17.734375 -21.6875 C 19.359375 -21 20.738281 -20.078125 21.875 -18.921875 L 18.5625 -14.984375 C 17.832031 -15.890625 16.957031 -16.601562 15.9375 -17.125 C 14.914062 -17.65625 13.90625 -17.921875 12.90625 -17.921875 C 11.125 -17.921875 9.628906 -17.289062 8.421875 -16.03125 C 7.222656 -14.78125 6.625 -13.234375 6.625 -11.390625 C 6.625 -9.503906 7.222656 -7.925781 8.421875 -6.65625 C 9.628906 -5.394531 11.125 -4.765625 12.90625 -4.765625 C 13.84375 -4.765625 14.820312 -5 15.84375 -5.46875 C 16.863281 -5.9375 17.769531 -6.582031 18.5625 -7.40625 Z M 18.5625 -7.40625 "/></g></g></g><g fill="#1e3456" fill-opacity="1"><g transform="translate(245.983966, 353.822695)"><g><path d="M 10.359375 -30.171875 C 11.066406 -30.171875 11.804688 -29.921875 12.578125 -29.421875 C 13.347656 -28.921875 13.84375 -28.671875 14.0625 -28.671875 C 14.726562 -28.671875 15.0625 -29.117188 15.0625 -30.015625 L 18.4375 -30.015625 C 18.4375 -26.691406 17.320312 -25.03125 15.09375 -25.03125 C 14.34375 -25.03125 13.582031 -25.28125 12.8125 -25.78125 C 12.050781 -26.289062 11.566406 -26.546875 11.359375 -26.546875 C 10.710938 -26.546875 10.390625 -26.082031 10.390625 -25.15625 L 6.984375 -25.15625 C 6.984375 -28.5 8.109375 -30.171875 10.359375 -30.171875 Z M 12.9375 -22.71875 C 16.425781 -22.71875 19.328125 -21.628906 21.640625 -19.453125 C 23.960938 -17.273438 25.125 -14.554688 25.125 -11.296875 C 25.125 -8.015625 23.957031 -5.269531 21.625 -3.0625 C 19.300781 -0.851562 16.398438 0.25 12.921875 0.25 C 9.453125 0.25 6.554688 -0.847656 4.234375 -3.046875 C 1.921875 -5.242188 0.765625 -7.992188 0.765625 -11.296875 C 0.765625 -14.578125 1.921875 -17.300781 4.234375 -19.46875 C 6.554688 -21.632812 9.457031 -22.71875 12.9375 -22.71875 Z M 13 -17.921875 C 11.238281 -17.921875 9.734375 -17.28125 8.484375 -16 C 7.242188 -14.726562 6.625 -13.144531 6.625 -11.25 C 6.625 -9.363281 7.25 -7.769531 8.5 -6.46875 C 9.757812 -5.175781 11.257812 -4.53125 13 -4.53125 C 14.738281 -4.53125 16.210938 -5.175781 17.421875 -6.46875 C 18.628906 -7.769531 19.234375 -9.363281 19.234375 -11.25 C 19.234375 -13.144531 18.628906 -14.726562 17.421875 -16 C 16.210938 -17.28125 14.738281 -17.921875 13 -17.921875 Z M 13 -17.921875 "/></g></g></g><g fill="#1e3456" fill-opacity="1"><g transform="translate(276.175929, 353.822695)"><g><path d="M 19.875 -18.015625 L 7.984375 -18.015625 L 7.984375 -13.546875 L 18.71875 -13.546875 L 18.71875 -9.046875 L 7.984375 -9.046875 L 7.984375 -4.5 L 20.234375 -4.5 L 20.234375 0 L 2.25 0 L 2.25 -22.515625 L 19.875 -22.515625 Z M 19.875 -18.015625 "/></g></g></g><g fill="#1e3456" fill-opacity="1"><g transform="translate(302.156214, 353.822695)"><g><path d="M 10.90625 -22.78125 C 14.269531 -22.78125 17.226562 -21.941406 19.78125 -20.265625 L 17.625 -15.796875 C 16.445312 -16.484375 15.179688 -17.046875 13.828125 -17.484375 C 12.484375 -17.921875 11.347656 -18.140625 10.421875 -18.140625 C 8.773438 -18.140625 7.953125 -17.59375 7.953125 -16.5 C 7.953125 -15.789062 8.359375 -15.222656 9.171875 -14.796875 C 9.984375 -14.367188 10.972656 -14 12.140625 -13.6875 C 13.304688 -13.375 14.472656 -13 15.640625 -12.5625 C 16.816406 -12.125 17.8125 -11.410156 18.625 -10.421875 C 19.4375 -9.429688 19.84375 -8.1875 19.84375 -6.6875 C 19.84375 -4.519531 18.992188 -2.832031 17.296875 -1.625 C 15.609375 -0.414062 13.457031 0.1875 10.84375 0.1875 C 8.976562 0.1875 7.132812 -0.128906 5.3125 -0.765625 C 3.488281 -1.410156 1.898438 -2.289062 0.546875 -3.40625 L 2.765625 -7.8125 C 3.898438 -6.832031 5.238281 -6.023438 6.78125 -5.390625 C 8.332031 -4.753906 9.707031 -4.4375 10.90625 -4.4375 C 11.832031 -4.4375 12.550781 -4.601562 13.0625 -4.9375 C 13.570312 -5.269531 13.828125 -5.757812 13.828125 -6.40625 C 13.828125 -7.019531 13.53125 -7.535156 12.9375 -7.953125 C 12.351562 -8.378906 11.617188 -8.691406 10.734375 -8.890625 C 9.859375 -9.097656 8.90625 -9.375 7.875 -9.71875 C 6.851562 -10.0625 5.898438 -10.4375 5.015625 -10.84375 C 4.140625 -11.25 3.40625 -11.894531 2.8125 -12.78125 C 2.226562 -13.675781 1.9375 -14.742188 1.9375 -15.984375 C 1.9375 -18.046875 2.753906 -19.691406 4.390625 -20.921875 C 6.035156 -22.160156 8.207031 -22.78125 10.90625 -22.78125 Z M 10.90625 -22.78125 "/></g></g></g><g fill="#ffffff" fill-opacity="0.302"><g transform="translate(264.592458, 92.733976)"><g><path d="M 38.625 -56.65625 L 38.625 -18.34375 C 38.625 -12.363281 36.882812 -7.703125 33.40625 -4.359375 C 29.9375 -1.023438 25.160156 0.640625 19.078125 0.640625 C 11.367188 0.640625 4.875 -2.375 -0.40625 -8.40625 L 6.21875 -18.015625 C 10.257812 -13.816406 14.222656 -11.71875 18.109375 -11.71875 C 22.140625 -11.71875 24.15625 -14.035156 24.15625 -18.671875 L 24.15625 -45.015625 L 4.765625 -45.015625 L 4.765625 -56.65625 Z M 38.625 -56.65625 "/></g></g></g><g fill="#ffffff" fill-opacity="0.502"><g transform="translate(269.275942, 90.84172)"><g><path d="M 38.625 -56.65625 L 38.625 -18.34375 C 38.625 -12.363281 36.882812 -7.703125 33.40625 -4.359375 C 29.9375 -1.023438 25.160156 0.640625 19.078125 0.640625 C 11.367188 0.640625 4.875 -2.375 -0.40625 -8.40625 L 6.21875 -18.015625 C 10.257812 -13.816406 14.222656 -11.71875 18.109375 -11.71875 C 22.140625 -11.71875 24.15625 -14.035156 24.15625 -18.671875 L 24.15625 -45.015625 L 4.765625 -45.015625 L 4.765625 -56.65625 Z M 38.625 -56.65625 "/></g></g></g><g fill="#e43b45" fill-opacity="1"><g transform="translate(273.959444, 88.949464)"><g><path d="M 38.625 -56.65625 L 38.625 -18.34375 C 38.625 -12.363281 36.882812 -7.703125 33.40625 -4.359375 C 29.9375 -1.023438 25.160156 0.640625 19.078125 0.640625 C 11.367188 0.640625 4.875 -2.375 -0.40625 -8.40625 L 6.21875 -18.015625 C 10.257812 -13.816406 14.222656 -11.71875 18.109375 -11.71875 C 22.140625 -11.71875 24.15625 -14.035156 24.15625 -18.671875 L 24.15625 -45.015625 L 4.765625 -45.015625 L 4.765625 -56.65625 Z M 38.625 -56.65625 "/></g></g></g><g fill="#ffffff" fill-opacity="0.302"><g transform="translate(253.746444, 171.650682)"><g><path d="M 32.484375 -57.046875 C 41.265625 -57.046875 48.5625 -54.3125 54.375 -48.84375 C 60.195312 -43.382812 63.109375 -36.554688 63.109375 -28.359375 C 63.109375 -20.117188 60.1875 -13.222656 54.34375 -7.671875 C 48.5 -2.128906 41.210938 0.640625 32.484375 0.640625 C 23.753906 0.640625 16.476562 -2.117188 10.65625 -7.640625 C 4.84375 -13.160156 1.9375 -20.066406 1.9375 -28.359375 C 1.9375 -36.609375 4.84375 -43.453125 10.65625 -48.890625 C 16.476562 -54.328125 23.753906 -57.046875 32.484375 -57.046875 Z M 32.640625 -45.015625 C 28.222656 -45.015625 24.453125 -43.410156 21.328125 -40.203125 C 18.203125 -36.992188 16.640625 -33.019531 16.640625 -28.28125 C 16.640625 -23.539062 18.21875 -19.539062 21.375 -16.28125 C 24.53125 -13.019531 28.285156 -11.390625 32.640625 -11.390625 C 37.003906 -11.390625 40.707031 -13.019531 43.75 -16.28125 C 46.800781 -19.539062 48.328125 -23.539062 48.328125 -28.28125 C 48.328125 -33.019531 46.800781 -36.992188 43.75 -40.203125 C 40.707031 -43.410156 37.003906 -45.015625 32.640625 -45.015625 Z M 32.640625 -45.015625 "/></g></g></g><g fill="#ffffff" fill-opacity="0.502"><g transform="translate(258.429928, 169.758426)"><g><path d="M 32.484375 -57.046875 C 41.265625 -57.046875 48.5625 -54.3125 54.375 -48.84375 C 60.195312 -43.382812 63.109375 -36.554688 63.109375 -28.359375 C 63.109375 -20.117188 60.1875 -13.222656 54.34375 -7.671875 C 48.5 -2.128906 41.210938 0.640625 32.484375 0.640625 C 23.753906 0.640625 16.476562 -2.117188 10.65625 -7.640625 C 4.84375 -13.160156 1.9375 -20.066406 1.9375 -28.359375 C 1.9375 -36.609375 4.84375 -43.453125 10.65625 -48.890625 C 16.476562 -54.328125 23.753906 -57.046875 32.484375 -57.046875 Z M 32.640625 -45.015625 C 28.222656 -45.015625 24.453125 -43.410156 21.328125 -40.203125 C 18.203125 -36.992188 16.640625 -33.019531 16.640625 -28.28125 C 16.640625 -23.539062 18.21875 -19.539062 21.375 -16.28125 C 24.53125 -13.019531 28.285156 -11.390625 32.640625 -11.390625 C 37.003906 -11.390625 40.707031 -13.019531 43.75 -16.28125 C 46.800781 -19.539062 48.328125 -23.539062 48.328125 -28.28125 C 48.328125 -33.019531 46.800781 -36.992188 43.75 -40.203125 C 40.707031 -43.410156 37.003906 -45.015625 32.640625 -45.015625 Z M 32.640625 -45.015625 "/></g></g></g><g fill="#e43b45" fill-opacity="1"><g transform="translate(263.11343, 167.866171)"><g><path d="M 32.484375 -57.046875 C 41.265625 -57.046875 48.5625 -54.3125 54.375 -48.84375 C 60.195312 -43.382812 63.109375 -36.554688 63.109375 -28.359375 C 63.109375 -20.117188 60.1875 -13.222656 54.34375 -7.671875 C 48.5 -2.128906 41.210938 0.640625 32.484375 0.640625 C 23.753906 0.640625 16.476562 -2.117188 10.65625 -7.640625 C 4.84375 -13.160156 1.9375 -20.066406 1.9375 -28.359375 C 1.9375 -36.609375 4.84375 -43.453125 10.65625 -48.890625 C 16.476562 -54.328125 23.753906 -57.046875 32.484375 -57.046875 Z M 32.640625 -45.015625 C 28.222656 -45.015625 24.453125 -43.410156 21.328125 -40.203125 C 18.203125 -36.992188 16.640625 -33.019531 16.640625 -28.28125 C 16.640625 -23.539062 18.21875 -19.539062 21.375 -16.28125 C 24.53125 -13.019531 28.285156 -11.390625 32.640625 -11.390625 C 37.003906 -11.390625 40.707031 -13.019531 43.75 -16.28125 C 46.800781 -19.539062 48.328125 -23.539062 48.328125 -28.28125 C 48.328125 -33.019531 46.800781 -36.992188 43.75 -40.203125 C 40.707031 -43.410156 37.003906 -45.015625 32.640625 -45.015625 Z M 32.640625 -45.015625 "/></g></g></g><g fill="#ffffff" fill-opacity="0.302"><g transform="translate(249.493598, 250.567388)"><g><path d="M 67.796875 0 L 55.109375 0 L 55.03125 -36.765625 L 41.453125 -5.65625 L 32.078125 -5.65625 L 18.5 -36.765625 L 18.5 0 L 5.65625 0 L 5.65625 -56.65625 L 21.421875 -56.65625 L 36.765625 -22.953125 L 52.125 -56.65625 L 67.796875 -56.65625 Z M 67.796875 0 "/></g></g></g><g fill="#ffffff" fill-opacity="0.502"><g transform="translate(254.177083, 248.675132)"><g><path d="M 67.796875 0 L 55.109375 0 L 55.03125 -36.765625 L 41.453125 -5.65625 L 32.078125 -5.65625 L 18.5 -36.765625 L 18.5 0 L 5.65625 0 L 5.65625 -56.65625 L 21.421875 -56.65625 L 36.765625 -22.953125 L 52.125 -56.65625 L 67.796875 -56.65625 Z M 67.796875 0 "/></g></g></g><g fill="#e43b45" fill-opacity="1"><g transform="translate(258.860584, 246.782877)"><g><path d="M 67.796875 0 L 55.109375 0 L 55.03125 -36.765625 L 41.453125 -5.65625 L 32.078125 -5.65625 L 18.5 -36.765625 L 18.5 0 L 5.65625 0 L 5.65625 -56.65625 L 21.421875 -56.65625 L 36.765625 -22.953125 L 52.125 -56.65625 L 67.796875 -56.65625 Z M 67.796875 0 "/></g></g></g><g fill="#ffffff" fill-opacity="0.302"><g transform="translate(266.93717, 316.875272)"><g><path d="M 42.0625 2.140625 L 35.015625 -4.703125 C 30.796875 -1.191406 26.078125 0.5625 20.859375 0.5625 C 15.960938 0.5625 11.914062 -0.796875 8.71875 -3.515625 C 5.519531 -6.242188 3.921875 -9.722656 3.921875 -13.953125 C 3.921875 -16.984375 4.796875 -19.53125 6.546875 -21.59375 C 8.304688 -23.664062 10.726562 -25.554688 13.8125 -27.265625 C 11.007812 -31.242188 9.609375 -34.96875 9.609375 -38.4375 C 9.609375 -42.082031 10.898438 -44.984375 13.484375 -47.140625 C 16.066406 -49.304688 19.519531 -50.390625 23.84375 -50.390625 C 28.019531 -50.390625 31.4375 -49.34375 34.09375 -47.25 C 36.75 -45.164062 38.078125 -42.488281 38.078125 -39.21875 C 38.078125 -36.082031 37.046875 -33.492188 34.984375 -31.453125 C 32.921875 -29.410156 30.035156 -27.441406 26.328125 -25.546875 C 28.847656 -22.796875 31.484375 -20.066406 34.234375 -17.359375 C 35.609375 -19.734375 36.722656 -22.394531 37.578125 -25.34375 L 45.40625 -19.78125 C 44.21875 -16.5625 42.703125 -13.617188 40.859375 -10.953125 L 48.25 -3.921875 Z M 19.21875 -38.4375 C 19.21875 -36.34375 20.070312 -33.992188 21.78125 -31.390625 C 26.238281 -33.804688 28.46875 -36.390625 28.46875 -39.140625 C 28.46875 -40.421875 28.050781 -41.460938 27.21875 -42.265625 C 26.394531 -43.078125 25.316406 -43.484375 23.984375 -43.484375 C 22.515625 -43.484375 21.351562 -43.007812 20.5 -42.0625 C 19.644531 -41.113281 19.21875 -39.90625 19.21875 -38.4375 Z M 21.34375 -8.046875 C 23.90625 -8.046875 26.375 -8.96875 28.75 -10.8125 C 23.71875 -15.84375 20.328125 -19.351562 18.578125 -21.34375 C 15.492188 -19.3125 13.953125 -17.128906 13.953125 -14.796875 C 13.953125 -12.804688 14.648438 -11.179688 16.046875 -9.921875 C 17.453125 -8.671875 19.21875 -8.046875 21.34375 -8.046875 Z M 21.34375 -8.046875 "/></g></g></g><g fill="#ffffff" fill-opacity="0.502"><g transform="translate(271.117099, 315.3539)"><g><path d="M 42.0625 2.140625 L 35.015625 -4.703125 C 30.796875 -1.191406 26.078125 0.5625 20.859375 0.5625 C 15.960938 0.5625 11.914062 -0.796875 8.71875 -3.515625 C 5.519531 -6.242188 3.921875 -9.722656 3.921875 -13.953125 C 3.921875 -16.984375 4.796875 -19.53125 6.546875 -21.59375 C 8.304688 -23.664062 10.726562 -25.554688 13.8125 -27.265625 C 11.007812 -31.242188 9.609375 -34.96875 9.609375 -38.4375 C 9.609375 -42.082031 10.898438 -44.984375 13.484375 -47.140625 C 16.066406 -49.304688 19.519531 -50.390625 23.84375 -50.390625 C 28.019531 -50.390625 31.4375 -49.34375 34.09375 -47.25 C 36.75 -45.164062 38.078125 -42.488281 38.078125 -39.21875 C 38.078125 -36.082031 37.046875 -33.492188 34.984375 -31.453125 C 32.921875 -29.410156 30.035156 -27.441406 26.328125 -25.546875 C 28.847656 -22.796875 31.484375 -20.066406 34.234375 -17.359375 C 35.609375 -19.734375 36.722656 -22.394531 37.578125 -25.34375 L 45.40625 -19.78125 C 44.21875 -16.5625 42.703125 -13.617188 40.859375 -10.953125 L 48.25 -3.921875 Z M 19.21875 -38.4375 C 19.21875 -36.34375 20.070312 -33.992188 21.78125 -31.390625 C 26.238281 -33.804688 28.46875 -36.390625 28.46875 -39.140625 C 28.46875 -40.421875 28.050781 -41.460938 27.21875 -42.265625 C 26.394531 -43.078125 25.316406 -43.484375 23.984375 -43.484375 C 22.515625 -43.484375 21.351562 -43.007812 20.5 -42.0625 C 19.644531 -41.113281 19.21875 -39.90625 19.21875 -38.4375 Z M 21.34375 -8.046875 C 23.90625 -8.046875 26.375 -8.96875 28.75 -10.8125 C 23.71875 -15.84375 20.328125 -19.351562 18.578125 -21.34375 C 15.492188 -19.3125 13.953125 -17.128906 13.953125 -14.796875 C 13.953125 -12.804688 14.648438 -11.179688 16.046875 -9.921875 C 17.453125 -8.671875 19.21875 -8.046875 21.34375 -8.046875 Z M 21.34375 -8.046875 "/></g></g></g><g fill="#1e3456" fill-opacity="1"><g transform="translate(275.297023, 313.832528)"><g><path d="M 42.0625 2.140625 L 35.015625 -4.703125 C 30.796875 -1.191406 26.078125 0.5625 20.859375 0.5625 C 15.960938 0.5625 11.914062 -0.796875 8.71875 -3.515625 C 5.519531 -6.242188 3.921875 -9.722656 3.921875 -13.953125 C 3.921875 -16.984375 4.796875 -19.53125 6.546875 -21.59375 C 8.304688 -23.664062 10.726562 -25.554688 13.8125 -27.265625 C 11.007812 -31.242188 9.609375 -34.96875 9.609375 -38.4375 C 9.609375 -42.082031 10.898438 -44.984375 13.484375 -47.140625 C 16.066406 -49.304688 19.519531 -50.390625 23.84375 -50.390625 C 28.019531 -50.390625 31.4375 -49.34375 34.09375 -47.25 C 36.75 -45.164062 38.078125 -42.488281 38.078125 -39.21875 C 38.078125 -36.082031 37.046875 -33.492188 34.984375 -31.453125 C 32.921875 -29.410156 30.035156 -27.441406 26.328125 -25.546875 C 28.847656 -22.796875 31.484375 -20.066406 34.234375 -17.359375 C 35.609375 -19.734375 36.722656 -22.394531 37.578125 -25.34375 L 45.40625 -19.78125 C 44.21875 -16.5625 42.703125 -13.617188 40.859375 -10.953125 L 48.25 -3.921875 Z M 19.21875 -38.4375 C 19.21875 -36.34375 20.070312 -33.992188 21.78125 -31.390625 C 26.238281 -33.804688 28.46875 -36.390625 28.46875 -39.140625 C 28.46875 -40.421875 28.050781 -41.460938 27.21875 -42.265625 C 26.394531 -43.078125 25.316406 -43.484375 23.984375 -43.484375 C 22.515625 -43.484375 21.351562 -43.007812 20.5 -42.0625 C 19.644531 -41.113281 19.21875 -39.90625 19.21875 -38.4375 Z M 21.34375 -8.046875 C 23.90625 -8.046875 26.375 -8.96875 28.75 -10.8125 C 23.71875 -15.84375 20.328125 -19.351562 18.578125 -21.34375 C 15.492188 -19.3125 13.953125 -17.128906 13.953125 -14.796875 C 13.953125 -12.804688 14.648438 -11.179688 16.046875 -9.921875 C 17.453125 -8.671875 19.21875 -8.046875 21.34375 -8.046875 Z M 21.34375 -8.046875 "/></g></g></g><g clip-path="url(#id6)"><path fill="#1e3456" d="M 89.796875 204.113281 C 42.945312 157.351562 38.441406 86.027344 79.726562 44.8125 C 113.839844 10.765625 168.535156 7.921875 212.9375 34.328125 C 164.070312 -0.015625 100.316406 0.925781 61.5 39.671875 C 17.367188 83.726562 22.183594 159.964844 72.261719 209.949219 C 122.335938 259.9375 198.710938 264.742188 242.84375 220.691406 C 243.953125 219.582031 245.027344 218.449219 246.074219 217.300781 C 204.363281 255.105469 135.417969 249.652344 89.796875 204.113281 " fill-opacity="1" fill-rule="nonzero"/></g><path fill="#e53a46" d="M 191.917969 135.625 L 191.917969 109.628906 L 175.035156 109.628906 L 175.035156 118.773438 L 144.691406 88.480469 L 101.140625 88.480469 L 61.820312 127.632812 C 63.78125 145.601562 70 163.675781 80.363281 180.214844 L 80.863281 180.214844 L 144.691406 116.503906 L 208.515625 180.214844 L 236.589844 180.214844 L 191.917969 135.625 " fill-opacity="1" fill-rule="nonzero"/><path fill="#1e3456" d="M 130.371094 163.070312 L 141.554688 163.070312 L 141.554688 151.90625 L 130.371094 151.90625 L 130.371094 163.070312 " fill-opacity="1" fill-rule="nonzero"/><path fill="#1e3456" d="M 130.371094 180.214844 L 141.554688 180.214844 L 141.554688 169.050781 L 130.371094 169.050781 L 130.371094 180.214844 " fill-opacity="1" fill-rule="nonzero"/><path fill="#1e3456" d="M 148.347656 180.214844 L 159.53125 180.214844 L 159.53125 169.050781 L 148.347656 169.050781 L 148.347656 180.214844 " fill-opacity="1" fill-rule="nonzero"/><path fill="#1e3456" d="M 148.347656 163.070312 L 159.53125 163.070312 L 159.53125 151.90625 L 148.347656 151.90625 L 148.347656 163.070312 " fill-opacity="1" fill-rule="nonzero"/></svg>